<svg width="16" height="16" viewBox="0 0 16 16" fill="none" xmlns="http://www.w3.org/2000/svg">
<path d="M8 15.2C6.09044 15.2 4.25909 14.4414 2.90883 13.0911C1.55857 11.7409 0.799997 9.90951 0.799997 7.99995C0.799997 6.09039 1.55857 4.25904 2.90883 2.90878C4.25909 1.55852 6.09044 0.799952 8 0.799952C9.90956 0.799952 11.7409 1.55852 13.0912 2.90878C14.4414 4.25904 15.2 6.09039 15.2 7.99995C15.2 9.90951 14.4414 11.7409 13.0912 13.0911C11.7409 14.4414 9.90956 15.2 8 15.2ZM8 14.3C8.82732 14.3 9.64655 14.137 10.4109 13.8204C11.1753 13.5038 11.8698 13.0397 12.4548 12.4547C13.0398 11.8697 13.5038 11.1752 13.8204 10.4109C14.137 9.64651 14.3 8.82728 14.3 7.99995C14.3 7.17262 14.137 6.3534 13.8204 5.58905C13.5038 4.82469 13.0398 4.13019 12.4548 3.54518C11.8698 2.96017 11.1753 2.49612 10.4109 2.17951C9.64655 1.86291 8.82733 1.69995 8 1.69995C6.32913 1.69995 4.7267 2.3637 3.54523 3.54518C2.36375 4.72666 1.7 6.32909 1.7 7.99995C1.7 9.67081 2.36375 11.2732 3.54522 12.4547C4.7267 13.6362 6.32913 14.3 8 14.3ZM8 5.74995C7.82098 5.74995 7.64929 5.67884 7.5227 5.55225C7.39611 5.42566 7.325 5.25397 7.325 5.07495C7.325 4.89593 7.39611 4.72424 7.5227 4.59765C7.64929 4.47107 7.82098 4.39995 8 4.39995C8.17902 4.39995 8.35071 4.47107 8.47729 4.59765C8.60388 4.72424 8.675 4.89593 8.675 5.07495C8.675 5.25397 8.60388 5.42566 8.47729 5.55225C8.35071 5.67884 8.17902 5.74995 8 5.74995ZM8 11.6C7.89467 11.6 7.79268 11.5631 7.71176 11.4957C7.63085 11.4282 7.57616 11.3346 7.5572 11.231L7.55 11.15L7.55 7.09995C7.54979 6.9875 7.59169 6.87905 7.66745 6.79595C7.74322 6.71285 7.84735 6.66112 7.95934 6.65096C8.07133 6.6408 8.18307 6.67294 8.27255 6.74105C8.36203 6.80916 8.42276 6.9083 8.4428 7.01895L8.45 7.09995L8.45 11.15C8.45 11.2693 8.40259 11.3838 8.3182 11.4681C8.2338 11.5525 8.11934 11.6 8 11.6Z" fill="#999999"/>
</svg>
