<svg width="24" height="24" viewBox="0 0 24 24" fill="none" xmlns="http://www.w3.org/2000/svg">
<path d="M12 20.1601C7.48797 20.1601 3.83997 16.5121 3.83997 12.0001C3.83997 7.48809 7.48797 3.84009 12 3.84009C16.512 3.84009 20.16 7.48809 20.16 12.0001C20.16 16.5121 16.512 20.1601 12 20.1601ZM12 4.80009C8.01597 4.80009 4.79997 8.01609 4.79997 12.0001C4.79997 15.9841 8.01597 19.2001 12 19.2001C15.984 19.2001 19.2 15.9841 19.2 12.0001C19.2 8.01609 15.984 4.80009 12 4.80009Z" fill="#000B90"/>
<path d="M7.68005 11.52H16.3201V12.48H7.68005V11.52Z" fill="#000B90"/>
<path d="M11.52 7.67993H12.48V16.3199H11.52V7.67993Z" fill="#000B90"/>
</svg>
