<svg width="25" height="30" viewBox="0 0 25 30" fill="none" xmlns="http://www.w3.org/2000/svg">
<path d="M17.5615 0.1173C16.1531 0.41642 14.6444 1.2434 13.7251 2.21701C12.6172 3.39589 12.022 4.76833 12.022 6.17009V6.62756H12.3933C13.8901 6.62756 15.6109 5.87097 16.7718 4.71554C18.0212 3.47214 18.746 1.75366 18.6341 0.304983L18.6105 -1.90735e-06L18.3394 0.00586319C18.1862 0.00586319 17.8385 0.0586491 17.5615 0.1173Z" fill="#C1C1C1"/>
<path d="M16.7954 7.58944C16.0941 7.7302 15.4812 7.92962 14.3203 8.38709C12.682 9.03226 12.6997 9.03812 10.4839 8.18768C9.16381 7.68915 8.54503 7.56012 7.66107 7.60704C6.03457 7.68915 4.50236 8.37536 3.25302 9.58358C1.99189 10.7918 1.15507 12.5396 0.819162 14.6628C0.695407 15.4135 0.713086 17.7361 0.842735 18.5924C1.07257 20.0528 1.58527 21.9413 2.09207 23.1554C3.19998 25.8065 5.12114 28.5513 6.51191 29.4721C7.16605 29.9003 7.48427 30 8.22091 30C8.98702 30 9.37007 29.9179 10.1656 29.5894C11.6271 28.9853 11.8923 28.915 12.847 28.8739C13.8783 28.8328 14.4381 28.956 15.6698 29.4956C15.9763 29.6305 16.4182 29.7947 16.6657 29.8592C17.1961 30.0059 18.0919 30.0352 18.5633 29.9179C19.3412 29.7302 20.1898 29.1144 20.9618 28.1935C21.6631 27.349 22.7651 25.6481 23.2719 24.6334C23.7375 23.695 24.3091 22.2639 24.262 22.1466C24.2443 22.1114 24.1029 22.0176 23.9496 21.9355C23.5253 21.7185 22.7651 21.173 22.3939 20.8152C20.9677 19.4369 20.2959 17.5894 20.4609 15.4897C20.5729 14.0059 21.2211 12.6393 22.329 11.5132C22.7003 11.1378 23.2425 10.6804 23.5018 10.522C23.5607 10.4868 23.3014 10.1232 22.9419 9.72434C21.999 8.66862 20.7438 7.96481 19.2705 7.64809C18.6694 7.52493 17.2845 7.48973 16.7954 7.58944Z" fill="#C1C1C1"/>
</svg>
