<svg width="16" height="16" viewBox="0 0 16 16" fill="none" xmlns="http://www.w3.org/2000/svg">
<path d="M2 11.375V14C2 14.3978 2.15804 14.7794 2.43934 15.0607C2.72064 15.342 3.10218 15.5 3.5 15.5H12.5C12.8978 15.5 13.2794 15.342 13.5607 15.0607C13.842 14.7794 14 14.3978 14 14V11.375M1.25 9.5V8.75C1.25 8.35218 1.40804 7.97064 1.68934 7.68934C1.97064 7.40804 2.35218 7.25 2.75 7.25H13.25C13.6478 7.25 14.0294 7.40804 14.3107 7.68934C14.592 7.97064 14.75 8.35218 14.75 8.75V9.5M8 5V7.25M8 5C8.9465 5 9.5 4.274 9.5 3.03125C9.5 1.7885 8 0.5 8 0.5C8 0.5 6.5 1.7885 6.5 3.03125C6.5 4.274 7.0535 5 8 5Z" stroke="#999999" stroke-linecap="round" stroke-linejoin="round"/>
<path d="M1.25 9.5C1.25 10.0967 1.48705 10.669 1.90901 11.091C2.33097 11.5129 2.90326 11.75 3.5 11.75C4.09674 11.75 4.66903 11.5129 5.09099 11.091C5.51295 10.669 5.75 10.0967 5.75 9.5C5.75 10.0967 5.98705 10.669 6.40901 11.091C6.83097 11.5129 7.40326 11.75 8 11.75C8.59674 11.75 9.16903 11.5129 9.59099 11.091C10.0129 10.669 10.25 10.0967 10.25 9.5C10.25 10.0967 10.4871 10.669 10.909 11.091C11.331 11.5129 11.9033 11.75 12.5 11.75C13.0967 11.75 13.669 11.5129 14.091 11.091C14.5129 10.669 14.75 10.0967 14.75 9.5" stroke="#999999" stroke-linecap="round" stroke-linejoin="round"/>
</svg>
