<svg width="14" height="14" viewBox="0 0 14 14" fill="none" xmlns="http://www.w3.org/2000/svg">
<g clip-path="url(#clip0_424_3404)">
<path d="M1.16666 7.00004C1.16666 4.80029 1.16666 3.70012 1.85033 3.01704C2.53341 2.33337 3.63358 2.33337 5.83333 2.33337H8.16666C10.3664 2.33337 11.4666 2.33337 12.1497 3.01704C12.8333 3.70012 12.8333 4.80029 12.8333 7.00004V8.16671C12.8333 10.3665 12.8333 11.4666 12.1497 12.1497C11.4666 12.8334 10.3664 12.8334 8.16666 12.8334H5.83333C3.63358 12.8334 2.53341 12.8334 1.85033 12.1497C1.16666 11.4666 1.16666 10.3665 1.16666 8.16671V7.00004Z" stroke="#000B90"/>
<path d="M4.08333 2.33337V1.45837M9.91666 2.33337V1.45837M1.45833 5.25004H12.5417" stroke="#000B90" stroke-linecap="round"/>
<path d="M10.5 9.91667C10.5 10.0714 10.4385 10.2197 10.3291 10.3291C10.2197 10.4385 10.0714 10.5 9.91667 10.5C9.76196 10.5 9.61358 10.4385 9.50419 10.3291C9.39479 10.2197 9.33333 10.0714 9.33333 9.91667C9.33333 9.76196 9.39479 9.61358 9.50419 9.50419C9.61358 9.39479 9.76196 9.33333 9.91667 9.33333C10.0714 9.33333 10.2197 9.39479 10.3291 9.50419C10.4385 9.61358 10.5 9.76196 10.5 9.91667ZM10.5 7.58333C10.5 7.73804 10.4385 7.88642 10.3291 7.99581C10.2197 8.10521 10.0714 8.16667 9.91667 8.16667C9.76196 8.16667 9.61358 8.10521 9.50419 7.99581C9.39479 7.88642 9.33333 7.73804 9.33333 7.58333C9.33333 7.42862 9.39479 7.28025 9.50419 7.17085C9.61358 7.06146 9.76196 7 9.91667 7C10.0714 7 10.2197 7.06146 10.3291 7.17085C10.4385 7.28025 10.5 7.42862 10.5 7.58333ZM7.58333 9.91667C7.58333 10.0714 7.52187 10.2197 7.41248 10.3291C7.30308 10.4385 7.15471 10.5 7 10.5C6.84529 10.5 6.69692 10.4385 6.58752 10.3291C6.47812 10.2197 6.41667 10.0714 6.41667 9.91667C6.41667 9.76196 6.47812 9.61358 6.58752 9.50419C6.69692 9.39479 6.84529 9.33333 7 9.33333C7.15471 9.33333 7.30308 9.39479 7.41248 9.50419C7.52187 9.61358 7.58333 9.76196 7.58333 9.91667ZM7.58333 7.58333C7.58333 7.73804 7.52187 7.88642 7.41248 7.99581C7.30308 8.10521 7.15471 8.16667 7 8.16667C6.84529 8.16667 6.69692 8.10521 6.58752 7.99581C6.47812 7.88642 6.41667 7.73804 6.41667 7.58333C6.41667 7.42862 6.47812 7.28025 6.58752 7.17085C6.69692 7.06146 6.84529 7 7 7C7.15471 7 7.30308 7.06146 7.41248 7.17085C7.52187 7.28025 7.58333 7.42862 7.58333 7.58333ZM4.66667 9.91667C4.66667 10.0714 4.60521 10.2197 4.49581 10.3291C4.38642 10.4385 4.23804 10.5 4.08333 10.5C3.92862 10.5 3.78025 10.4385 3.67085 10.3291C3.56146 10.2197 3.5 10.0714 3.5 9.91667C3.5 9.76196 3.56146 9.61358 3.67085 9.50419C3.78025 9.39479 3.92862 9.33333 4.08333 9.33333C4.23804 9.33333 4.38642 9.39479 4.49581 9.50419C4.60521 9.61358 4.66667 9.76196 4.66667 9.91667ZM4.66667 7.58333C4.66667 7.73804 4.60521 7.88642 4.49581 7.99581C4.38642 8.10521 4.23804 8.16667 4.08333 8.16667C3.92862 8.16667 3.78025 8.10521 3.67085 7.99581C3.56146 7.88642 3.5 7.73804 3.5 7.58333C3.5 7.42862 3.56146 7.28025 3.67085 7.17085C3.78025 7.06146 3.92862 7 4.08333 7C4.23804 7 4.38642 7.06146 4.49581 7.17085C4.60521 7.28025 4.66667 7.42862 4.66667 7.58333Z" fill="#000B90"/>
</g>
<defs>
<clipPath id="clip0_424_3404">
<rect width="14" height="14" fill="white"/>
</clipPath>
</defs>
</svg>
