<svg width="31" height="35" viewBox="0 0 31 35" fill="none" xmlns="http://www.w3.org/2000/svg">
<path d="M12.0179 6.35713H18.9822C18.9822 5.43361 18.6153 4.54792 17.9623 3.89489C17.3092 3.24186 16.4235 2.87499 15.5 2.87499C14.5765 2.87499 13.6908 3.24186 13.0378 3.89489C12.3847 4.54792 12.0179 5.43361 12.0179 6.35713ZM9.92859 6.35713C9.92859 4.8795 10.5156 3.46238 11.5604 2.41754C12.6053 1.37269 14.0224 0.785706 15.5 0.785706C16.9777 0.785706 18.3948 1.37269 19.4396 2.41754C20.4845 3.46238 21.0714 4.8795 21.0714 6.35713H29.7768C30.0539 6.35713 30.3196 6.46719 30.5155 6.6631C30.7114 6.85901 30.8214 7.12472 30.8214 7.40178C30.8214 7.67883 30.7114 7.94454 30.5155 8.14045C30.3196 8.33636 30.0539 8.44642 29.7768 8.44642H27.9522L26.2571 28.7863C26.1337 30.266 25.4589 31.6453 24.3662 32.6507C23.2736 33.6561 21.8431 34.2142 20.3583 34.2143H10.6417C9.15693 34.2142 7.7264 33.6561 6.63379 32.6507C5.54119 31.6453 4.86631 30.266 4.74298 28.7863L3.04787 8.44642H1.22323C0.946175 8.44642 0.680466 8.33636 0.484558 8.14045C0.288649 7.94454 0.178589 7.67883 0.178589 7.40178C0.178589 7.12472 0.288649 6.85901 0.484558 6.6631C0.680466 6.46719 0.946175 6.35713 1.22323 6.35713H9.92859ZM6.8253 28.6122C6.90496 29.5697 7.34153 30.4622 8.04844 31.1129C8.75534 31.7636 9.68096 32.1248 10.6417 32.125H20.3583C21.3191 32.1248 22.2447 31.7636 22.9516 31.1129C23.6585 30.4622 24.0951 29.5697 24.1747 28.6122L25.8573 8.44642H5.14412L6.8253 28.6122ZM12.3661 13.3214C12.6431 13.3214 12.9089 13.4315 13.1048 13.6274C13.3007 13.8233 13.4107 14.089 13.4107 14.3661V26.2053C13.4107 26.4824 13.3007 26.7481 13.1048 26.944C12.9089 27.1399 12.6431 27.25 12.3661 27.25C12.089 27.25 11.8233 27.1399 11.6274 26.944C11.4315 26.7481 11.3214 26.4824 11.3214 26.2053V14.3661C11.3214 14.089 11.4315 13.8233 11.6274 13.6274C11.8233 13.4315 12.089 13.3214 12.3661 13.3214ZM19.6786 14.3661C19.6786 14.089 19.5685 13.8233 19.3726 13.6274C19.1767 13.4315 18.911 13.3214 18.6339 13.3214C18.3569 13.3214 18.0912 13.4315 17.8953 13.6274C17.6994 13.8233 17.5893 14.089 17.5893 14.3661V26.2053C17.5893 26.4824 17.6994 26.7481 17.8953 26.944C18.0912 27.1399 18.3569 27.25 18.6339 27.25C18.911 27.25 19.1767 27.1399 19.3726 26.944C19.5685 26.7481 19.6786 26.4824 19.6786 26.2053V14.3661Z" fill="white"/>
</svg>
