<svg width="22" height="22" viewBox="0 0 22 22" fill="none" xmlns="http://www.w3.org/2000/svg">
<path fill-rule="evenodd" clip-rule="evenodd" d="M0.403198 11.0001C0.403198 8.18967 1.51964 5.49434 3.50693 3.50705C5.49421 1.51977 8.18955 0.40332 11 0.40332C13.8104 0.40332 16.5058 1.51977 18.4931 3.50705C20.4804 5.49434 21.5968 8.18967 21.5968 11.0001C21.5968 13.8106 20.4804 16.5059 18.4931 18.4932C16.5058 20.4805 13.8104 21.5969 11 21.5969C8.18955 21.5969 5.49421 20.4805 3.50693 18.4932C1.51964 16.5059 0.403198 13.8106 0.403198 11.0001ZM11 1.92332C8.59268 1.92332 6.28396 2.87962 4.58173 4.58185C2.8795 6.28408 1.9232 8.5928 1.9232 11.0001C1.9232 13.4074 2.8795 15.7162 4.58173 17.4184C6.28396 19.1206 8.59268 20.0769 11 20.0769C13.4073 20.0769 15.716 19.1206 17.4183 17.4184C19.1205 15.7162 20.0768 13.4074 20.0768 11.0001C20.0768 8.5928 19.1205 6.28408 17.4183 4.58185C15.716 2.87962 13.4073 1.92332 11 1.92332ZM14.7664 7.23532C14.9164 7.38534 15.0006 7.58879 15.0006 7.80092C15.0006 8.01305 14.9164 8.2165 14.7664 8.36652L12.1312 11.0001L14.7664 13.6337C14.9166 13.7839 15.001 13.9877 15.001 14.2001C15.001 14.4126 14.9166 14.6163 14.7664 14.7665C14.6162 14.9167 14.4124 15.0011 14.2 15.0011C13.9876 15.0011 13.7838 14.9167 13.6336 14.7665L11 12.1313L8.3664 14.7665C8.29202 14.8409 8.20371 14.8999 8.10653 14.9402C8.00935 14.9804 7.90519 15.0011 7.8 15.0011C7.69481 15.0011 7.59065 14.9804 7.49346 14.9402C7.39628 14.8999 7.30798 14.8409 7.2336 14.7665C7.15922 14.6921 7.10021 14.6038 7.05996 14.5067C7.01971 14.4095 6.99899 14.3053 6.99899 14.2001C6.99899 14.0949 7.01971 13.9908 7.05996 13.8936C7.10021 13.7964 7.15922 13.7081 7.2336 13.6337L9.8688 11.0001L7.2336 8.36652C7.08338 8.2163 6.99899 8.01256 6.99899 7.80012C6.99899 7.58768 7.08338 7.38394 7.2336 7.23372C7.38382 7.0835 7.58756 6.99911 7.8 6.99911C8.01244 6.99911 8.21618 7.0835 8.3664 7.23372L11 9.86892L13.6336 7.23372C13.7079 7.15922 13.7962 7.10011 13.8934 7.05978C13.9906 7.01945 14.0948 6.99869 14.2 6.99869C14.3052 6.99869 14.4094 7.01945 14.5066 7.05978C14.6038 7.10011 14.6921 7.16082 14.7664 7.23532Z" fill="#D7263D"/>
</svg>
