<svg width="100" height="100" viewBox="0 0 100 100" fill="none" xmlns="http://www.w3.org/2000/svg">
<circle cx="50" cy="50" r="50" fill="#000B90"/>
<g clip-path="url(#clip0_119_1575)">
<path d="M31.5616 35.8502C31.569 34.5876 31.5795 33.3239 31.5816 32.0613C31.5848 29.8144 31.5785 27.5685 31.5848 25.3216C31.588 24.2571 32.2789 23.5384 33.3321 23.4836C33.4543 23.4772 33.5776 23.4793 33.7008 23.4793C44.8568 23.4793 56.0139 23.4793 67.17 23.4793C68.3138 23.4793 68.9331 23.8725 69.2207 24.7493C69.3007 24.9928 69.287 25.2341 69.287 25.4776C69.2902 28.7426 69.2881 32.0065 69.2902 35.2716C69.2902 35.4644 69.3028 35.6562 69.3102 35.8491C69.444 36.121 69.4977 36.4045 69.4977 36.7102C69.4924 39.58 69.4945 42.4508 69.4956 45.3206C69.4956 45.5314 69.4787 45.7401 69.4366 45.9445C69.4071 46.2554 69.1859 46.4325 68.9626 46.6064C64.3115 50.2213 59.6582 53.8341 55.0039 57.4459C54.5815 57.7736 54.2245 58.2142 53.6641 58.3417C53.3882 58.3017 53.1965 58.1098 52.9879 57.9549C51.0457 56.5195 49.8598 56.5226 47.9028 57.9686C47.6932 58.1235 47.4963 58.309 47.2193 58.3438C46.9718 58.3364 46.8064 58.1699 46.6274 58.0308C41.7508 54.2515 36.8879 50.4542 32.0061 46.6812C31.7575 46.4883 31.4868 46.3102 31.4384 45.9572C31.3847 45.7148 31.3773 45.4703 31.3773 45.2247C31.3784 42.4224 31.3805 39.6211 31.3752 36.8187C31.3752 36.4804 31.3994 36.1547 31.5616 35.8523V35.8502Z" fill="white"/>
<path d="M47.1761 58.2658C47.57 57.9791 47.9597 57.6862 48.3578 57.4058C49.6681 56.4826 51.2501 56.49 52.553 57.4258C52.9353 57.6999 53.3071 57.9876 53.6841 58.269C53.9296 58.1984 54.0728 58.3796 54.2339 58.5008C60.9347 63.5617 67.6039 68.6648 74.3058 73.7246C74.627 73.967 74.9388 74.2241 75.259 74.4687C75.4106 74.5846 75.5771 74.6963 75.5886 74.9176C75.0188 75.4888 74.2995 75.6511 73.5295 75.6511C67.9357 75.6532 62.3419 75.6522 56.7481 75.6522C46.9633 75.6522 37.1776 75.6522 27.3929 75.6522C26.604 75.6522 25.8667 75.5015 25.2811 74.9176C25.3095 74.6331 25.5465 74.5171 25.7371 74.3727C28.7979 72.0489 31.8555 69.7229 34.9173 67.4001C38.7469 64.4944 42.5755 61.5856 46.4041 58.68C46.6379 58.5029 46.8475 58.269 47.1771 58.2658H47.1761Z" fill="#B6C7EE"/>
<path d="M47.1761 58.2658C45.5815 59.4863 43.99 60.7109 42.3912 61.9261C38.6511 64.7695 34.9068 67.6077 31.1646 70.449C29.2034 71.9382 27.2422 73.4285 25.2811 74.9176C24.548 74.3011 24.3479 73.4748 24.3479 72.5674C24.3479 67.2726 24.3479 61.9777 24.3479 56.6828C24.3479 51.9666 24.3447 47.2503 24.3521 42.5341C24.3521 41.907 24.3732 41.2704 24.8261 40.7582C25.1589 40.8204 25.3495 41.0965 25.5928 41.2852C27.4181 42.6964 29.2403 44.1107 31.0592 45.5304C31.2857 45.7074 31.4668 45.9066 31.5922 46.1616C36.7868 50.1971 41.9804 54.2325 47.175 58.2679L47.1761 58.2658Z" fill="#DBE4F7"/>
<path d="M75.5897 74.9176C73.2641 73.1565 70.9375 71.3965 68.6129 69.6333C64.7991 66.7403 60.9863 63.8463 57.1757 60.9501C56.0076 60.0617 54.848 59.1638 53.6841 58.27C58.883 54.2336 64.0808 50.1981 69.2797 46.1616C69.4008 45.9045 69.5851 45.7064 69.8105 45.5293C71.6779 44.0612 73.5738 42.6289 75.4412 41.1619C75.6381 41.007 75.8267 40.7825 76.1342 40.8942C76.4786 41.3358 76.5144 41.867 76.5155 42.3855C76.5229 52.4978 76.5229 62.6101 76.5176 72.7223C76.5176 73.576 76.2743 74.3454 75.5886 74.9187L75.5897 74.9176Z" fill="#DBE4F7"/>
<path d="M76.1342 40.892C75.1705 41.4696 74.3468 42.2326 73.4526 42.904C72.0413 43.9631 70.6678 45.0719 69.2786 46.1606C69.2828 42.9335 69.2881 39.7053 69.2933 36.4783C69.2933 36.2685 69.3028 36.0578 69.3081 35.848C71.2513 37.1802 73.1946 38.5134 75.1378 39.8445C75.5444 40.1237 75.9225 40.4283 76.1342 40.892Z" fill="#E7EDFA"/>
<path d="M31.5932 46.1595C29.4762 44.5144 27.357 42.8713 25.2442 41.2209C25.0831 41.0944 24.9641 40.9132 24.8261 40.7572C25.0104 40.3598 25.3485 40.1122 25.694 39.875C27.6488 38.5313 29.6057 37.1918 31.5616 35.8502C31.5669 39.0235 31.5711 42.1979 31.5774 45.3712C31.5774 45.6336 31.588 45.8971 31.5932 46.1595Z" fill="#E7EDFA"/>
<path d="M54.0001 35.5171C54.0075 35.4044 54.0117 35.2863 54.0243 35.1693C54.0823 34.6034 54.4751 34.2324 54.9839 34.2609C55.482 34.2893 55.8085 34.6519 55.8107 35.2273C55.8191 37.1401 55.798 39.0541 55.8201 40.9669C55.8391 42.5878 57.3905 43.6618 58.8651 43.0916C59.7098 42.7649 60.2333 42.1199 60.2996 41.2335C60.4976 38.5745 60.0468 36.0673 58.4427 33.8446C56.1045 30.6059 52.0042 29.0935 48.0661 30.0473C44.2207 30.979 41.2126 34.264 40.6575 38.1382C39.8855 43.5247 43.4139 48.4465 48.7581 49.3929C50.932 49.7787 53.0153 49.4351 54.9839 48.4233C55.1239 48.3517 55.2588 48.2642 55.4041 48.2062C55.877 48.0165 56.3752 48.183 56.5869 48.5898C56.8112 49.0198 56.6617 49.531 56.1846 49.8061C55.0829 50.4426 53.9022 50.88 52.6509 51.1097C46.2945 52.2733 40.3594 48.3116 38.9976 42.0008C37.6105 35.5719 42.0246 29.1652 48.5569 28.125C55.0355 27.0932 61.0411 31.4901 61.9901 37.9822C62.1723 39.2322 62.2502 40.5063 62.0175 41.7563C61.7131 43.3909 60.7051 44.4659 59.1073 44.8832C57.4685 45.3111 56.0466 44.8369 54.9596 43.5269C54.6753 43.1843 54.5731 43.0905 54.2118 43.4583C52.4782 45.2226 49.7018 45.5367 47.63 44.2519C45.4804 42.9198 44.5303 40.3641 45.3002 37.9885C46.0681 35.6183 48.3621 34.0712 50.853 34.2703C51.9062 34.3547 52.8647 34.7214 53.7084 35.3717C53.7874 35.4328 53.8453 35.5393 54.0001 35.515V35.5171Z" fill="#1249C8"/>
<path d="M50.4433 43.2276C48.4505 43.2339 46.8601 41.6635 46.8485 39.6801C46.838 37.6661 48.4274 36.0515 50.4243 36.0504C52.4065 36.0504 54.0117 37.6376 54.0191 39.6084C54.0275 41.6319 52.4571 43.2202 50.4433 43.2276Z" fill="#EBEBEB"/>
</g>
<defs>
<clipPath id="clip0_119_1575">
<rect width="52.1739" height="52.1739" fill="white" transform="translate(24.3479 23.4783)"/>
</clipPath>
</defs>
</svg>
