<svg width="18" height="18" viewBox="0 0 18 18" fill="none" xmlns="http://www.w3.org/2000/svg">
<path d="M2.25 3.75V3.1875C2.10082 3.1875 1.95774 3.24676 1.85225 3.35225C1.74676 3.45774 1.6875 3.60082 1.6875 3.75H2.25ZM15.75 3.75H16.3125C16.3125 3.60082 16.2532 3.45774 16.1477 3.35225C16.0423 3.24676 15.8992 3.1875 15.75 3.1875V3.75ZM2.25 4.3125H15.75V3.1875H2.25V4.3125ZM15.1875 3.75V12.75H16.3125V3.75H15.1875ZM14.25 13.6875H3.75V14.8125H14.25V13.6875ZM2.8125 12.75V3.75H1.6875V12.75H2.8125ZM3.75 13.6875C3.2325 13.6875 2.8125 13.2675 2.8125 12.75H1.6875C1.6875 13.297 1.9048 13.8216 2.29159 14.2084C2.67839 14.5952 3.20299 14.8125 3.75 14.8125V13.6875ZM15.1875 12.75C15.1875 13.2675 14.7675 13.6875 14.25 13.6875V14.8125C14.797 14.8125 15.3216 14.5952 15.7084 14.2084C16.0952 13.8216 16.3125 13.297 16.3125 12.75H15.1875Z" fill="#999999"/>
<path d="M2.25 3.75L9 10.5L15.75 3.75" stroke="#999999" stroke-linecap="round" stroke-linejoin="round"/>
</svg>
