<svg width="40" height="41" viewBox="0 0 40 41" fill="none" xmlns="http://www.w3.org/2000/svg">
<path d="M38.75 20.5C38.75 12.3125 33.5625 5.375 26.25 2.8125V38.1875C33.5625 35.625 38.75 28.6875 38.75 20.5Z" fill="#ED4C5C"/>
<path d="M1.25 20.5C1.25 28.6875 6.5 35.625 13.75 38.1875V2.8125C6.5 5.375 1.25 12.3125 1.25 20.5Z" fill="#75A843"/>
<path d="M26.25 2.8125C24.3125 2.125 22.1875 1.75 20 1.75C17.8125 1.75 15.6875 2.125 13.75 2.8125V38.1875C15.6875 38.875 17.8125 39.25 20 39.25C22.1875 39.25 24.3125 38.875 26.25 38.1875V2.8125Z" fill="white"/>
<path d="M25.4376 20.3125C25.3751 20.125 25.3126 20.375 25.3126 20.4375C25.3126 20.25 25.2501 20.125 25.1251 19.9375C24.9376 20.125 24.8751 20.375 24.8751 20.625C24.8126 20.4375 24.7501 20.25 24.5626 20.1875C24.6876 20.375 24.6251 20.5 24.6251 20.6875C24.6251 20.9375 24.8126 21.125 24.8126 21.375C24.8126 21.625 24.6876 21.8125 24.5001 22V21.8125C23.8751 22.0625 24.0001 22.375 24.0001 22.9375C24.0001 23.5 23.6876 23.375 23.3126 23.6875C23.3751 23.5625 23.3751 23.375 23.3126 23.25C23.3126 23.625 22.8126 23.625 22.7501 23.9375C22.6876 24.0625 22.7501 24.3125 22.5626 24.375C22.4376 24.4375 22.2501 24.5625 22.2501 24.6875C22.1251 24.625 22.0001 24.625 21.8126 24.625C21.8751 24.5625 21.9376 24.5625 22.0001 24.5C21.3751 24.1875 21.1876 24.875 20.6251 24.9375C20.4376 24.9375 20.0001 24.6875 20.0001 24.9375C20.5626 24.9375 20.8126 25.4375 21.2501 25.4375C21.6251 25.4375 21.9376 25.125 22.3126 25.125C22.2501 25.125 22.0626 25 21.8751 25C22.1876 24.8125 22.3751 24.4375 22.7501 24.4375C23.3751 24.4375 23.6876 24.3125 23.8751 23.6875C23.8126 23.6875 23.7501 23.6875 23.6876 23.75C23.6876 23.5 23.9376 23.1875 24.1876 23.0625C24.8126 22.9375 24.7501 22.4375 25.1251 22C25.0001 22 24.8751 22.0625 24.7501 22.1875C24.7501 21.8125 24.6876 21.4375 25.0001 21.1875C25.6251 20.875 25.5626 20.75 25.4376 20.3125ZM14.5626 20.3125C14.4376 20.8125 14.3751 20.9375 14.8751 21.25C15.2501 21.5 15.1251 21.875 15.1251 22.25C15.0001 22.125 14.9376 22.0625 14.7501 22.0625C15.1251 22.4375 15.0626 23 15.6876 23.125C15.8751 23.25 16.1876 23.5625 16.1876 23.8125C16.1251 23.8125 16.0626 23.75 16.0001 23.75C16.1876 24.375 16.5001 24.5 17.1251 24.5C17.5001 24.5 17.6876 24.875 18.0001 25.0625C17.8126 25.0625 17.6251 25.125 17.5626 25.1875C17.9376 25.1875 18.2501 25.5625 18.6251 25.5C19.0626 25.5 19.3751 25 19.8751 25C19.8751 24.75 19.4376 25 19.2501 25C18.7501 24.875 18.5626 24.25 17.8751 24.5C17.9376 24.5625 18.0001 24.625 18.0626 24.625C17.9376 24.625 17.7501 24.5625 17.6251 24.6875C17.5626 24.5625 17.4376 24.4375 17.3126 24.375C17.1876 24.25 17.1876 24.0625 17.1251 23.9375C17.0001 23.625 16.5626 23.5625 16.5626 23.25C16.5001 23.375 16.5001 23.5625 16.5626 23.6875C16.1876 23.375 15.8751 23.5 15.8751 22.9375C15.8751 22.4375 16.0001 22.0625 15.3751 21.8125V22C15.1876 21.8125 15.0626 21.6875 15.0626 21.375C15.0626 21.125 15.3126 20.9375 15.2501 20.6875C15.2501 20.5 15.1876 20.375 15.3126 20.1875C15.1251 20.25 15.0626 20.4375 15.0001 20.625C15.0001 20.375 14.9376 20.125 14.7501 19.9375C14.6876 20.0625 14.6251 20.25 14.5626 20.4375C14.6251 20.3125 14.5626 20.125 14.5626 20.3125Z" fill="#75A843"/>
<path d="M21.6875 24.0625C21.5625 24.0625 21.5 23.9375 21.4375 23.875C21.4375 23.75 21.9375 23.625 22 23.625V23.5C21.1875 23.75 18.75 23.9375 18.25 23.0625C18 23.4375 17.5625 23.1875 17.125 22.875C17.1875 23 17.4375 23.625 17.4375 23.5625C17.5625 23.625 18.375 23.8125 18.375 24L18.1875 24.1875C19.5 24.625 20.3125 24.75 21.6875 24.0625Z" fill="#428BC1"/>
<path d="M20.875 24.0624C20.9375 23.9999 20.9375 23.9374 20.9375 23.8124L20.875 23.6249C21 23.4999 20.875 23.1874 20.6875 23.2499C20.5625 23.3124 20.625 23.3124 20.5 23.2499C20.4375 23.2499 20.4375 23.1874 20.375 23.1874H19.25C19.125 23.1874 19.125 23.1249 19 23.1249C18.875 23.0624 18.8125 23.1874 18.75 23.2499C18.75 23.3749 18.8125 23.3749 18.8125 23.4374C18.8125 23.4999 18.75 23.5624 18.75 23.6874C18.75 23.8124 18.8125 23.8749 18.875 23.9374C18.625 24.1249 18.875 24.4374 19.125 24.2499C19.1875 24.3749 19.375 24.3749 19.5625 24.3749H20.25C20.375 24.3749 20.625 24.4374 20.6875 24.2499C20.875 24.5624 21.125 24.1874 20.875 24.0624Z" fill="#ED4C5C"/>
<path d="M22.875 22.4375C22.375 21.8125 22.125 22.75 21.5625 22.6875C21.6875 21.9375 20.5625 22.1875 20.25 22.375C20.3125 22.3125 20.375 22.1875 20.4375 22.0625C20.1875 22.0625 19.875 22.1875 19.6875 22C19.3125 21.75 18.8125 21.625 18.5 22.0625C18.25 21.6875 17.5625 21.3125 17.1875 21.6875C17.1875 21.3125 16.8125 20.75 16.375 20.8125C15.875 20.875 16.0625 21.5 16.3125 21.75C16.5 21.9375 16.75 22 17 22C17 22.125 17.0625 22.1875 17.125 22.25C17.4375 22.5 18.0625 22.5625 18.375 22.3125C18.375 22.9375 19.625 22.9375 19.9375 22.625C19.8125 22.9375 19.6875 23.5625 20.125 23.5625C20.5 23.5625 20.375 23.1875 20.6875 23.0625C20.9375 22.9375 21.25 22.875 21.5 23C21.9375 23.25 23.3125 23.1875 22.875 22.4375Z" fill="#428BC1"/>
<path d="M17.75 20.875C17.6875 20.75 17.5625 20.625 17.5625 20.625C17.3125 20.6875 17.3125 20.5 17.25 20.3125C17.1875 20 16.75 19.875 16.75 19.625C16.75 19.375 17 19.125 16.8125 18.875C16.625 18.625 16.3125 18.5 16.3125 18.625C16.25 18.75 16.5625 18.75 16.5625 19.0625C16.5625 19.4375 16.1875 19.75 16.625 20.0625C16.875 20.4375 16.875 21.125 17.3125 21.125C17.5 21.125 17.6875 21.0625 17.75 20.875Z" fill="#75A843"/>
<path d="M18.6875 20.5625C18.5625 20.3125 18.6875 19.9375 18.4375 19.75C18.125 19.5 17.5 20 17.4375 19.375C17.4375 19.25 18.125 18.5 18.25 18.4375C18.4375 18.1875 18.375 17.75 18.1875 17.625C17.9375 17.5 17.875 17.625 17.6875 17.875C17.75 17.9375 18 18.0625 18 18.125C17.8125 18.5625 17.25 18.625 17.125 19.0625C17 19.375 17.0625 19.875 17.375 20.0625C17.5625 20.1875 17.6875 20.1875 17.875 20.1875C18.4375 20.125 18.125 20.25 18.1875 20.375C18.1875 20.5 18.375 20.9375 18.6875 20.5625ZM16.8125 17.5C16.8125 17.875 17.1875 17.8125 17.4375 17.75C17.4375 17.625 17.4375 17.5 17.5 17.375C17.375 17.4375 17.1875 17.4375 17.125 17.375C16.9375 17.25 17.5625 17 17.5 17C17.5 17 16.875 17.3125 17.125 16.9375C17.1875 16.8125 17.3125 16.6875 17.375 16.5625C17.4375 16.4375 17.1875 16.5625 17.1875 16.5625C17.125 16.5625 17.0625 16.5625 17 16.625C16.625 16.9375 16.75 17.125 16.8125 17.5Z" fill="#75A843"/>
<path d="M23.4374 17.5C23.1249 17.0625 21.9374 15.625 20.2499 15.5C20.0624 15.5 19.5624 15.6875 19.3749 15.75C18.8124 16.125 19.9999 16.4375 20.0624 16.6875C20.0624 16.8125 20.1249 16.875 20.1249 17C19.9374 16.6875 19.7499 16.5 19.6874 16.375C19.3749 16.5 18.8749 16.3125 18.8124 16C18.7499 16.125 18.7499 16.1875 18.6249 16.3125C18.6249 16.125 18.5624 16.125 18.4999 16C18.4999 16.1875 18.4999 16.4375 18.3124 16.5C18.3749 16.375 18.3124 16.25 18.2499 16.125C18.2499 16.3125 18.2499 16.4375 18.1249 16.5625C18.1874 16.4375 18.0624 16.375 18.0624 16.25C17.9999 16.75 17.3124 16.9375 17.9999 17.125C18.2499 17.1875 18.3749 17.125 18.6249 17.25C18.6874 17.3125 18.8124 17.4375 18.8124 17.375C18.8124 17.4375 18.5624 17.6875 18.7499 17.75C18.6874 17.8125 18.4999 18.1875 18.4999 18.1875C18.6874 18.1875 18.5624 18.3125 18.4374 18.4375C18.2499 18.75 18.4374 19.0625 18.4999 19.4375C18.4999 19.3125 18.6874 19.5 18.6874 19.6875C18.6874 19.9375 18.9374 20.0625 18.9999 20.25C18.6874 19.9375 18.6249 20.25 18.9999 20.4375C18.6874 20.4375 18.6249 20.625 18.9374 20.75C18.1874 20.75 18.8124 21.0625 18.9374 21.125C19.4374 21.25 19.8124 20.875 19.8124 20.8125C19.8124 20.8125 20.8124 21.8125 20.8749 21.8125C20.9374 21.8125 21.4374 21.5625 21.5624 21.6875C21.6874 21.875 21.8124 21.6875 21.9374 21.75C22.0624 21.875 22.5624 21.75 22.6874 21.6875C22.7499 21.6875 23.3749 21.5625 23.2499 21.4375C22.9374 21.1875 22.5624 20.9375 22.2499 20.6875C21.9374 20.4375 21.6249 20.25 21.3749 20C21.2499 19.875 21.2499 19.625 21.1874 19.4375C21.7499 20 22.3124 20.3125 22.2499 19.25C22.6249 19.5625 23.3749 21.3125 23.4374 21.3125C23.6249 21.3125 23.4374 19.4375 23.4374 19.25C23.6874 19.5 23.6874 21.5625 23.7499 21.5625C24.0624 21.625 24.4999 18.875 23.4374 17.5Z" fill="#89664C"/>
<path d="M18.9375 20.6876C18.875 20.6876 18.5625 20.2501 18.5625 20.1876C18.75 20.9376 18 20.5001 18.1875 20.1876C17.9375 20.1251 17.3125 20.5001 17.5625 20.8751C17.4375 21.1251 18.4375 20.9376 18.5 20.8126C18.75 21.3751 19.375 20.7501 18.9375 20.6876ZM21.875 22.5626C22.1875 22.1251 20.875 22.0001 21 21.5001C20.8125 21.6251 20.5625 22.0626 20.3125 21.9376C20.1875 21.8751 19.6875 22.1876 19.9375 22.3751C19.9375 22.1251 20.0625 22.3126 20.25 22.2501C20.1875 22.4376 20 22.6251 20.3125 22.7501C20.1875 22.3751 20.6875 22.5626 20.625 22.3751C20.5 22.2501 21.0625 22.2501 21.125 22.2501C21.3125 22.2501 21.9375 22.4376 21.6875 22.6251C21.6875 22.6251 21.8125 22.6251 21.875 22.5626ZM17.6875 17.1876C17.625 17.3126 17.375 17.5001 17.375 17.6876C17.375 17.8126 17.6875 18.1251 17.8125 17.9376C17.4375 17.6876 17.875 17.5001 18.0625 17.5001C18.125 17.5001 18.125 17.6251 18.125 17.6251C18.1875 17.6876 18.6875 17.5001 18.625 17.3751C18.6875 17.1251 17.875 17.1251 17.6875 17.1876Z" fill="#FFCE31"/>
</svg>
