<svg width="31" height="30" viewBox="0 0 31 30" fill="none" xmlns="http://www.w3.org/2000/svg">
<path d="M1.53642 8.8259C0.897861 10.25 0.456238 11.8558 0.277201 13.4088C0.163812 14.4168 0.235426 16.5442 0.42043 17.5757C0.677049 18.9705 1.07093 20.1836 1.72143 21.555C1.85869 21.8538 1.99595 22.0824 2.01982 22.0765C2.04966 22.0648 3.18356 21.1682 4.54424 20.0723L7.01494 18.0914L6.93139 17.8453C6.74042 17.3295 6.54944 16.4153 6.48976 15.7237C6.40025 14.8036 6.48976 13.7839 6.72848 12.8404C6.82397 12.4711 6.88961 12.143 6.87171 12.1195C6.818 12.0316 1.95418 8.14022 1.90046 8.14022C1.87063 8.14022 1.70949 8.45083 1.53642 8.8259Z" fill="#ECC115"/>
<path d="M14.0093 0.0350904C12.7262 0.158162 11.0731 0.550817 9.89144 1.00208C7.01492 2.10972 4.39502 4.20778 2.70014 6.76297C2.46143 7.1146 2.19287 7.55414 2.09142 7.72996L1.91238 8.05229L4.4368 10.0859C5.82731 11.2053 6.96718 12.0902 6.96718 12.0492C6.96718 11.932 7.46848 10.8829 7.71316 10.4785C8.5606 9.09546 9.80192 7.92336 11.2044 7.18493C13.1917 6.1359 15.5192 5.84287 17.6736 6.37618C18.4792 6.57544 18.9865 6.76883 19.7444 7.16149L20.3233 7.45451L22.8 5.4678C24.1666 4.37774 25.2826 3.46936 25.2826 3.45178C25.2826 3.40489 24.6918 2.95363 24.095 2.55512C22.1137 1.23064 19.8399 0.392583 17.3931 0.081975C16.7545 -7.24792e-05 14.6419 -0.0293751 14.0093 0.0350904Z" fill="#EC4040"/>
<path d="M4.52035 20.1602C3.18951 21.2268 2.09142 22.1235 2.08546 22.1528C2.07352 22.1879 2.17497 22.3989 2.3182 22.6333C4.27567 25.9035 7.59978 28.4294 11.27 29.4374C12.756 29.8418 13.9496 30 15.5132 30C18.0197 30 20.2039 29.4901 22.4359 28.3884C23.4147 27.9078 25.0857 26.8177 25.0141 26.7122C24.9962 26.6829 23.8981 25.7921 22.5732 24.7255C21.2483 23.6589 20.1443 22.7623 20.1264 22.7329C20.1085 22.7036 19.8459 22.7974 19.5475 22.9439C18.0913 23.6648 16.3368 23.993 14.7612 23.8523C12.5352 23.6472 10.6673 22.7974 9.14546 21.303C8.25625 20.4298 7.89817 19.9375 7.33719 18.7947C7.18203 18.4782 7.02686 18.2203 6.99702 18.2203C6.96122 18.2203 5.85119 19.0936 4.52035 20.1602Z" fill="#15C140"/>
<path d="M15.7996 15.1729V18.1618H19.8578C23.3848 18.1618 23.916 18.1735 23.916 18.2497C23.916 18.2966 23.7548 18.6423 23.5579 19.0233C23.1879 19.7383 22.6567 20.4884 22.0719 21.1096C21.7078 21.4964 20.7112 22.2993 20.3352 22.5103C20.2039 22.5865 20.0965 22.6568 20.1025 22.6744C20.1025 22.692 21.2304 23.6062 22.603 24.708L25.1036 26.7064L25.5392 26.3431C28.3799 23.952 30.3076 20.336 30.7193 16.6263C30.8447 15.4718 30.7551 13.0866 30.5582 12.313L30.5284 12.184H23.164H15.7996V15.1729Z" fill="#4096EC"/>
</svg>
