<svg width="18" height="18" viewBox="0 0 18 18" fill="none" xmlns="http://www.w3.org/2000/svg">
<path d="M2.35911 10.25H2.8676H2.35911ZM2.35911 10.25C2.32988 10.0861 2.30601 9.91945 2.2875 9.75L2.35911 10.25ZM9.00027 15.25H9L8.99983 3.25C8.05658 3.25003 7.16942 3.46964 6.34596 3.90882C5.52827 4.34492 4.84 4.94531 4.28407 5.70463L3.70174 6.5H4.6875H6.25V7H2.75V3.5H3.25V4.7625V6.19226L4.14103 5.0741C4.73145 4.33318 5.44959 3.76239 6.29967 3.3577C7.15108 2.95238 8.04935 2.75 9 2.75C9.8723 2.75 10.6823 2.91546 11.4352 3.2432C12.1992 3.57577 12.8589 4.02199 13.4187 4.5813C13.9786 5.1417 14.4251 5.80142 14.7576 6.56491C15.0852 7.31716 15.2505 8.12697 15.25 8.99973V9C15.25 9.8723 15.0845 10.6823 14.7568 11.4352C14.4242 12.1992 13.978 12.8589 13.4187 13.4187C12.8583 13.9786 12.1986 14.4251 11.4351 14.7576C10.6828 15.0852 9.87303 15.2505 9.00027 15.25ZM3.40314 10.25C3.65716 11.479 4.26901 12.5186 5.23242 13.353C6.30585 14.2826 7.56915 14.75 9 14.75C10.5929 14.75 11.9615 14.1894 13.0758 13.0751C14.1901 11.9608 14.7505 10.5924 14.75 9L3.40314 10.25ZM8.75 9.09289V5.75H9.25V8.7V8.90711L9.39645 9.05355L11.4429 11.1L11.1 11.4429L8.75 9.09289ZM14.75 8.99983C14.75 7.407 14.1893 6.03848 13.0751 4.9242C11.9608 3.80991 10.5924 3.2495 9 3.25L14.75 8.99983Z" stroke="#999999"/>
</svg>
