<svg width="21" height="20" viewBox="0 0 21 20" fill="none" xmlns="http://www.w3.org/2000/svg">
<path d="M19 8.00003C19 7.73481 18.8946 7.48046 18.7071 7.29292C18.5196 7.10539 18.2652 7.00003 18 7.00003C17.7348 7.00003 17.4804 7.10539 17.2929 7.29292C17.1054 7.48046 17 7.73481 17 8.00003H19ZM5 8.00003C5 7.73481 4.89464 7.48046 4.7071 7.29292C4.51957 7.10539 4.26521 7.00003 4 7.00003C3.73478 7.00003 3.48043 7.10539 3.29289 7.29292C3.10535 7.48046 3 7.73481 3 8.00003H5ZM19.293 10.707C19.4816 10.8892 19.7342 10.99 19.9964 10.9877C20.2586 10.9854 20.5094 10.8803 20.6948 10.6948C20.8802 10.5094 20.9854 10.2586 20.9877 9.99643C20.99 9.73423 20.8892 9.48163 20.707 9.29303L19.293 10.707ZM11 1.00003L11.707 0.293031C11.5195 0.105559 11.2652 0.000244141 11 0.000244141C10.7348 0.000244141 10.4805 0.105559 10.293 0.293031L11 1.00003ZM1.293 9.29303C1.19749 9.38528 1.1213 9.49562 1.0689 9.61763C1.01649 9.73963 0.988901 9.87085 0.987747 10.0036C0.986593 10.1364 1.01189 10.2681 1.06218 10.391C1.11246 10.5139 1.18671 10.6255 1.2806 10.7194C1.37449 10.8133 1.48615 10.8876 1.60904 10.9379C1.73194 10.9881 1.86362 11.0134 1.9964 11.0123C2.12918 11.0111 2.2604 10.9835 2.3824 10.9311C2.50441 10.8787 2.61475 10.8025 2.707 10.707L1.293 9.29303ZM6 20H16V18H6V20ZM19 17V8.00003H17V17H19ZM5 17V8.00003H3V17H5ZM20.707 9.29303L11.707 0.293031L10.293 1.70703L19.293 10.707L20.707 9.29303ZM10.293 0.293031L1.293 9.29303L2.707 10.707L11.707 1.70703L10.293 0.293031ZM16 20C16.7956 20 17.5587 19.684 18.1213 19.1214C18.6839 18.5587 19 17.7957 19 17H17C17 17.2652 16.8946 17.5196 16.7071 17.7071C16.5196 17.8947 16.2652 18 16 18V20ZM6 18C5.73478 18 5.48043 17.8947 5.29289 17.7071C5.10535 17.5196 5 17.2652 5 17H3C3 17.7957 3.31607 18.5587 3.87868 19.1214C4.44129 19.684 5.20435 20 6 20V18Z" fill="#000A82"/>
</svg>
