<svg width="18" height="18" viewBox="0 0 18 18" fill="none" xmlns="http://www.w3.org/2000/svg">
<path d="M8.22751 6.19875C8.07039 6.30677 7.94443 6.45419 7.86226 6.62625C7.79255 6.75423 7.67589 6.85016 7.53685 6.89384C7.39781 6.93751 7.24725 6.92552 7.11688 6.86038C6.98651 6.79524 6.88651 6.68205 6.83794 6.54464C6.78937 6.40724 6.79603 6.25634 6.85651 6.12375C7.00651 5.82225 7.24126 5.50425 7.60426 5.26275C7.97026 5.0175 8.43301 4.875 9.00001 4.875C9.49351 4.875 10.0268 5.02125 10.4505 5.33925C10.6868 5.51195 10.8783 5.73857 11.0093 6.00026C11.1403 6.26195 11.2069 6.55113 11.2035 6.84375C11.2035 7.6185 10.8188 8.13375 10.4333 8.505C10.2908 8.64225 10.134 8.7735 9.99901 8.886L9.88876 8.97825C9.77308 9.07287 9.66407 9.17536 9.56251 9.285V10.3125C9.56251 10.4617 9.50325 10.6048 9.39776 10.7102C9.29227 10.8157 9.1492 10.875 9.00001 10.875C8.85083 10.875 8.70775 10.8157 8.60226 10.7102C8.49678 10.6048 8.43751 10.4617 8.43751 10.3125V9.20775C8.43751 9.03 8.48776 8.82975 8.62276 8.65575C8.78776 8.44575 8.98726 8.268 9.16126 8.12025L9.29851 8.0055L9.29926 8.00475C9.42826 7.8975 9.54226 7.80225 9.65176 7.69575C9.92776 7.4295 10.0785 7.18875 10.0785 6.84375C10.0818 6.72581 10.0559 6.60888 10.003 6.5034C9.95015 6.39792 9.87199 6.30717 9.77551 6.23925C9.57451 6.0885 9.28801 6 9.00001 6C8.62951 6 8.38951 6.09075 8.22751 6.19875ZM9.75001 12.75C9.75001 12.9489 9.67099 13.1397 9.53034 13.2803C9.38969 13.421 9.19892 13.5 9.00001 13.5C8.8011 13.5 8.61033 13.421 8.46968 13.2803C8.32903 13.1397 8.25001 12.9489 8.25001 12.75C8.25001 12.5511 8.32903 12.3603 8.46968 12.2197C8.61033 12.079 8.8011 12 9.00001 12C9.19892 12 9.38969 12.079 9.53034 12.2197C9.67099 12.3603 9.75001 12.5511 9.75001 12.75Z" fill="#999999"/>
<path d="M8.99999 1.80005C12.9764 1.80005 16.2 5.02369 16.2 9.00005C16.2 12.9764 12.9764 16.2 8.99999 16.2C5.02362 16.2 1.79999 12.9764 1.79999 9.00005C1.79999 5.02369 5.02362 1.80005 8.99999 1.80005ZM2.78181 9.00005C2.78181 10.6492 3.43693 12.2308 4.60307 13.397C5.7692 14.5631 7.35082 15.2182 8.99999 15.2182C10.6492 15.2182 12.2308 14.5631 13.3969 13.397C14.563 12.2308 15.2182 10.6492 15.2182 9.00005C15.2182 7.35088 14.563 5.76927 13.3969 4.60313C12.2308 3.437 10.6492 2.78187 8.99999 2.78187C7.35082 2.78187 5.7692 3.437 4.60307 4.60313C3.43693 5.76927 2.78181 7.35088 2.78181 9.00005Z" fill="#999999"/>
</svg>
