<svg width="41" height="36" viewBox="0 0 41 36" fill="none" xmlns="http://www.w3.org/2000/svg">
<path d="M15.0162 11.75C15.0162 12.7446 14.6211 13.6984 13.9179 14.4017C13.2147 15.1049 12.2609 15.5 11.2664 15.5C10.2719 15.5 9.31819 15.1049 8.61498 14.4017C7.91177 13.6984 7.51672 12.7446 7.51672 11.75C7.51672 10.7554 7.91177 9.80161 8.61498 9.09835C9.31819 8.39509 10.2719 8 11.2664 8C12.2609 8 13.2147 8.39509 13.9179 9.09835C14.6211 9.80161 15.0162 10.7554 15.0162 11.75Z" fill="#000B90"/>
<path d="M5.0169 0.5C3.69092 0.5 2.41925 1.02678 1.48163 1.96447C0.544022 2.90215 0.0172768 4.17392 0.0172768 5.5V30.5C0.0172768 31.8261 0.544022 33.0979 1.48163 34.0355C2.41925 34.9732 3.69092 35.5 5.0169 35.5H35.0147C36.3406 35.5 37.6123 34.9732 38.5499 34.0355C39.4875 33.0979 40.0143 31.8261 40.0143 30.5V5.5C40.0143 4.17392 39.4875 2.90215 38.5499 1.96447C37.6123 1.02678 36.3406 0.5 35.0147 0.5H5.0169ZM35.0147 3C35.6777 3 36.3135 3.26339 36.7823 3.73223C37.2511 4.20107 37.5145 4.83696 37.5145 5.5V21.75L28.0727 16.8825C27.8383 16.7651 27.5728 16.7243 27.314 16.766C27.0551 16.8078 26.8159 16.9298 26.6303 17.115L17.356 26.39L10.7065 21.96C10.4664 21.8001 10.1784 21.7283 9.89139 21.7565C9.60435 21.7848 9.33591 21.9114 9.13159 22.115L2.51709 28V5.5C2.51709 4.83696 2.78046 4.20107 3.24927 3.73223C3.71807 3.26339 4.35391 3 5.0169 3H35.0147Z" fill="#000B90"/>
</svg>
