<svg width="50" height="35" viewBox="0 0 50 35" fill="none" xmlns="http://www.w3.org/2000/svg">
<path d="M25 0.25C18.5625 0.25 13.5 5.14062 12.7922 11.3828C11.4307 11.6022 10.1538 12.1856 9.0968 13.0713C8.03975 13.957 7.24183 15.112 6.7875 16.4141C2.94375 17.5219 0 20.95 0 25.25C0 30.4438 4.18125 34.625 9.375 34.625H40.625C45.8187 34.625 50 30.4438 50 25.25C50 22.5 48.6641 20.0375 46.7281 18.3156C46.3656 12.825 41.9859 8.44375 36.475 8.15938C34.5938 3.58281 30.2781 0.25 25 0.25ZM25 3.375C29.3156 3.375 32.7656 6.14062 33.9844 10.0625L34.3281 11.1875H35.9375C40.2422 11.1875 43.75 14.6953 43.75 19V19.7812L44.3844 20.2703C45.15 20.8571 45.7721 21.6104 46.2036 22.4731C46.6351 23.3358 46.8647 24.2854 46.875 25.25C46.875 28.8062 44.1813 31.5 40.625 31.5H9.375C5.81875 31.5 3.125 28.8062 3.125 25.25C3.125 22.0938 5.39063 19.6437 8.25 19.1469L9.27656 18.9516L9.47187 17.9234C9.94062 15.8187 11.8062 14.3125 14.0625 14.3125H15.625V12.75C15.625 7.48438 19.7344 3.375 25 3.375ZM25 12.1156L23.875 13.1891L17.625 19.4391L19.875 21.6891L23.4375 18.1203V28.375H26.5625V18.1203L30.125 21.6859L32.375 19.4359L26.125 13.1859L25 12.1156Z" fill="#000B90"/>
</svg>
