<svg width="15" height="20" viewBox="0 0 15 20" fill="none" xmlns="http://www.w3.org/2000/svg">
<path d="M14.4534 7.1428C14.4534 10.6999 7.82108 19.2857 7.82108 19.2857C7.82108 19.2857 1.18874 10.6999 1.18874 7.1428C1.18874 5.43784 1.88751 3.80271 3.13131 2.59712C4.37511 1.39153 6.06208 0.714233 7.82108 0.714233C9.58009 0.714233 11.267 1.39153 12.5109 2.59712C13.7547 3.80271 14.4534 5.43784 14.4534 7.1428Z" stroke="#CCCCCC" stroke-linecap="round" stroke-linejoin="round"/>
<path d="M7.82108 9.28571C9.04206 9.28571 10.0319 8.32632 10.0319 7.14286C10.0319 5.95939 9.04206 5 7.82108 5C6.6001 5 5.6103 5.95939 5.6103 7.14286C5.6103 8.32632 6.6001 9.28571 7.82108 9.28571Z" stroke="#CCCCCC" stroke-linecap="round" stroke-linejoin="round"/>
</svg>
