<svg width="17" height="17" viewBox="0 0 17 17" fill="none" xmlns="http://www.w3.org/2000/svg">
<path d="M7.7525 5.99745C7.68997 6.05923 7.64032 6.1328 7.60644 6.21391C7.57255 6.29502 7.55511 6.38205 7.55511 6.46995C7.55511 6.55785 7.57255 6.64488 7.60644 6.72599C7.64032 6.8071 7.68997 6.88067 7.7525 6.94245L9.035 8.22495H2.825C2.45375 8.22495 2.15 8.5287 2.15 8.89995C2.15 9.2712 2.45375 9.57495 2.825 9.57495H9.035L7.7525 10.8575C7.68997 10.9192 7.64032 10.9928 7.60644 11.0739C7.57255 11.155 7.55511 11.2421 7.55511 11.33C7.55511 11.4179 7.57255 11.5049 7.60644 11.586C7.64032 11.6671 7.68997 11.7407 7.7525 11.8025C8.01575 12.0657 8.43425 12.0657 8.6975 11.8025L11.1208 9.3792C11.1833 9.31676 11.233 9.24258 11.2668 9.16092C11.3007 9.07927 11.3182 8.99173 11.3182 8.90333C11.3182 8.81492 11.3007 8.72739 11.2668 8.64573C11.233 8.56407 11.1833 8.4899 11.1208 8.42745L8.6975 5.99745C8.63572 5.93492 8.56215 5.88527 8.48104 5.85139C8.39993 5.8175 8.3129 5.80005 8.225 5.80005C8.1371 5.80005 8.05007 5.8175 7.96896 5.85139C7.88786 5.88527 7.81428 5.93492 7.7525 5.99745ZM14.3 13.625H9.575C9.20375 13.625 8.9 13.9287 8.9 14.3C8.9 14.6712 9.20375 14.975 9.575 14.975H14.3C15.0425 14.975 15.65 14.3675 15.65 13.625V4.17495C15.65 3.43245 15.0425 2.82495 14.3 2.82495H9.575C9.20375 2.82495 8.9 3.1287 8.9 3.49995C8.9 3.8712 9.20375 4.17495 9.575 4.17495H14.3V13.625Z" fill="#999999"/>
</svg>
