<svg width="10" height="10" viewBox="0 0 10 10" fill="none" xmlns="http://www.w3.org/2000/svg">
<g clip-path="url(#clip0_598_7275)">
<path d="M1.25 9.16671H6.25M1.66667 3.75004H5.83333M5.83333 9.16671V1.66671C5.83333 1.44569 5.74554 1.23373 5.58926 1.07745C5.43297 0.921171 5.22101 0.833374 5 0.833374H2.5C2.27899 0.833374 2.06702 0.921171 1.91074 1.07745C1.75446 1.23373 1.66667 1.44569 1.66667 1.66671V9.16671M5.83333 5.41671H6.66667C6.88768 5.41671 7.09964 5.5045 7.25592 5.66079C7.4122 5.81707 7.5 6.02903 7.5 6.25004V7.08337C7.5 7.30439 7.5878 7.51635 7.74408 7.67263C7.90036 7.82891 8.11232 7.91671 8.33333 7.91671C8.55435 7.91671 8.76631 7.82891 8.92259 7.67263C9.07887 7.51635 9.16667 7.30439 9.16667 7.08337V4.09587C9.16675 3.98591 9.14508 3.87702 9.10288 3.77547C9.06069 3.67392 8.99882 3.58173 8.92083 3.50421L7.5 2.08337" stroke="#737373" stroke-linecap="round" stroke-linejoin="round"/>
</g>
<defs>
<clipPath id="clip0_598_7275">
<rect width="10" height="10" fill="white"/>
</clipPath>
</defs>
</svg>
