<svg width="100" height="100" viewBox="0 0 100 100" fill="none" xmlns="http://www.w3.org/2000/svg">
<circle cx="50" cy="50" r="50" fill="#000B90"/>
<g clip-path="url(#clip0_119_1617)">
<path d="M29.2455 23.8795C28.1353 24.2804 27.1998 25.1234 26.6653 26.2027L26.3672 26.8195V50V73.1805L26.6653 73.7973C27.0868 74.6505 27.9194 75.4934 28.7623 75.9149L29.4511 76.2644H41.2212H52.9914L53.6595 75.9355C54.9548 75.2981 55.9005 74.0235 56.1266 72.6151C56.1883 72.1937 56.2294 68.2052 56.2294 61.8421V51.7475H55.3043H54.3894L54.3586 62.1094C54.3277 72.3582 54.3277 72.461 54.1118 72.9235C53.8446 73.4992 53.3306 74.0235 52.7858 74.2702C52.3951 74.4552 51.7989 74.4655 41.2212 74.4655C28.639 74.4655 29.6464 74.5272 28.8549 73.6431C28.1044 72.8207 28.1661 74.8869 28.1661 50C28.1661 24.9795 28.1044 27.1176 28.8651 26.3158C29.4819 25.6785 29.8931 25.5345 31.2089 25.5345H32.3499L32.4116 26.2747C32.5041 27.5185 32.9153 28.2072 33.861 28.7007L34.3853 28.9782H41.2212H48.0572L48.5403 28.7418C49.4963 28.2689 50.0617 27.2821 50.0617 26.0794V25.5345H51.2233C52.1176 25.5345 52.4671 25.5859 52.7858 25.7299C53.3306 25.9766 53.8446 26.5008 54.1118 27.0765C54.3174 27.5082 54.3277 27.7447 54.3586 30.9005L54.3894 34.2722H55.3146H56.2294V31.1575C56.2294 29.4511 56.178 27.7549 56.1266 27.3849C55.9005 25.9663 54.965 24.7019 53.6698 24.0646L52.9914 23.7356L41.3754 23.7151C30.366 23.6945 29.7286 23.6945 29.2455 23.8795ZM48.1908 26.1102C48.16 26.5111 48.0777 26.7373 47.9132 26.9017L47.6871 27.1279L41.396 27.1587C36.7907 27.1793 35.0329 27.1484 34.817 27.0662C34.4572 26.912 34.2311 26.4906 34.2311 25.9457V25.5345H41.2315H48.2319L48.1908 26.1102Z" fill="white"/>
<path d="M38.5485 42.9585V50H58.7479H78.9474V42.9585V35.9169H58.7479H38.5485V42.9585ZM77.097 42.9585V48.1497H58.7479H40.3989V42.9585V37.7673H58.7479H77.097V42.9585Z" fill="white"/>
<path d="M44.6957 40.3783L44.6649 41.3446L43.8631 40.882C43.2771 40.5428 43.0304 40.44 42.9482 40.5222C42.8865 40.5839 42.6604 40.954 42.4445 41.3343L42.0539 42.023L42.8454 42.4753C43.2771 42.722 43.6472 42.9379 43.6678 42.9585C43.6883 42.979 43.3285 43.2052 42.8762 43.4725L42.0436 43.9556L42.2286 44.2743C42.3417 44.4593 42.5576 44.8191 42.7118 45.0966L42.9893 45.5798L43.5752 45.2508C43.8939 45.0761 44.2434 44.8705 44.3565 44.7882C44.4696 44.7163 44.5929 44.6546 44.634 44.6546C44.6854 44.6546 44.7163 45.0658 44.7163 45.5798V46.5049H45.6414H46.5563L46.5872 45.5798L46.618 44.6546L47.4301 45.1172C47.8721 45.3742 48.2525 45.5695 48.2627 45.5592C48.8281 44.6032 49.1365 44.0173 49.0851 43.935C49.0543 43.8836 48.6842 43.6472 48.2525 43.4108L47.4712 42.9893L48.2833 42.5267C48.7253 42.28 49.0954 42.0539 49.1262 42.0333C49.1879 41.9716 48.2936 40.44 48.2011 40.44C48.1497 40.44 47.7693 40.6456 47.3376 40.9026L46.5666 41.3549V40.3886V39.412H45.6414H44.7266L44.6957 40.3783Z" fill="white"/>
<path d="M53.4539 40.3783V41.3549L52.6624 40.8923C52.2204 40.6456 51.8298 40.44 51.7886 40.44C51.7167 40.44 50.884 41.8483 50.884 41.9819C50.884 42.0333 51.2335 42.2595 51.655 42.4959C52.0765 42.7323 52.4054 42.9585 52.3746 43.0099C52.3437 43.0613 52.0251 43.2669 51.655 43.4622C51.2952 43.6678 50.9663 43.8836 50.9354 43.935C50.884 44.0173 51.3158 44.8808 51.6858 45.4564C51.7578 45.5592 51.9634 45.477 52.5699 45.1172C53.0016 44.8602 53.382 44.6546 53.4025 44.6546C53.4334 44.6546 53.4539 45.0658 53.4539 45.5798V46.5049H54.3791H55.3043V45.5798C55.3043 45.0658 55.3351 44.6546 55.3659 44.6546C55.4071 44.6546 55.6949 44.8088 56.0136 45.0041C57.1135 45.662 56.9798 45.6723 57.4527 44.8191C57.6891 44.4079 57.8742 44.0276 57.8742 43.9762C57.8742 43.9248 57.5555 43.7089 57.1546 43.493C56.764 43.2771 56.4145 43.0716 56.3939 43.0202C56.3631 42.979 56.6817 42.7426 57.1032 42.4959C57.5247 42.2595 57.8742 42.0128 57.8742 41.9614C57.8742 41.8174 57.0518 40.44 56.9696 40.44C56.9284 40.44 56.5481 40.6456 56.1266 40.8923L55.3557 41.3446L55.3248 40.3783L55.294 39.412H54.3791H53.4539V40.3783Z" fill="white"/>
<path d="M62.1916 40.3372C62.1916 40.8409 62.1608 41.2623 62.1197 41.2623C62.0786 41.2623 61.7393 41.0773 61.359 40.8512C60.9786 40.625 60.6291 40.44 60.5777 40.44C60.4852 40.44 59.5703 41.9716 59.632 42.023C59.6526 42.0436 60.0329 42.2697 60.4749 42.5267L61.2767 42.9893L60.4441 43.4725C59.9815 43.7295 59.6217 43.9762 59.6423 44.0173C59.7554 44.2743 60.4749 45.4873 60.5263 45.5181C60.5675 45.5387 60.9478 45.3536 61.3693 45.1069L62.1402 44.6649L62.1711 45.5798L62.2019 46.5049H63.1168H64.042V45.5798C64.042 45.0658 64.0728 44.6546 64.1242 44.6546C64.1653 44.6546 64.5457 44.8602 64.9671 45.1172C65.8512 45.6312 65.7381 45.6826 66.3857 44.5415L66.7147 43.9556L65.882 43.4725L65.0494 42.979L65.8614 42.5165C66.3035 42.2595 66.6735 42.0436 66.6941 42.0333C66.7661 41.9716 65.8409 40.4503 65.7381 40.4503C65.6867 40.4503 65.2858 40.6558 64.8643 40.9026L64.0934 41.3549L64.0625 40.3886L64.0317 39.412H63.1168H62.1916V40.3372Z" fill="white"/>
<path d="M71.0115 40.3783L70.9807 41.3446L70.1789 40.882C69.5929 40.5428 69.3462 40.44 69.264 40.5222C69.2023 40.5839 68.9762 40.954 68.7603 41.3343L68.3697 42.023L69.1612 42.4753C69.5929 42.722 69.963 42.9379 69.9836 42.9585C70.0041 42.979 69.6443 43.2052 69.192 43.4725L68.3594 43.9556L68.5444 44.2743C68.6575 44.4593 68.8734 44.8191 69.0275 45.0966L69.3051 45.5798L69.891 45.2508C70.2097 45.0761 70.5592 44.8705 70.6723 44.7882C70.7854 44.7163 70.9087 44.6546 70.9498 44.6546C71.0012 44.6546 71.0321 45.0658 71.0321 45.5798V46.5049H71.9572H72.8721L72.903 45.5798L72.9338 44.6546L73.7459 45.1172C74.1879 45.3742 74.5683 45.5695 74.5785 45.5592C75.1439 44.6032 75.4523 44.0173 75.4009 43.935C75.3701 43.8836 75 43.6472 74.5683 43.4108L73.787 42.9893L74.5991 42.5267C75.0411 42.28 75.4112 42.0539 75.442 42.0333C75.5037 41.9716 74.6094 40.44 74.5169 40.44C74.4655 40.44 74.0851 40.6456 73.6534 40.9026L72.8824 41.3549V40.3886V39.412H71.9572H71.0424L71.0115 40.3783Z" fill="white"/>
<path d="M29.8109 66.653V67.5781H41.2212H52.6316V66.653V65.7278H41.2212H29.8109V66.653Z" fill="white"/>
<path d="M40.0082 68.6678C39.0214 69.1612 38.4766 70.1481 38.5794 71.2788C38.641 71.947 38.8466 72.4198 39.3092 72.903C39.854 73.4889 40.3475 73.6945 41.2212 73.6945C42.1464 73.6945 42.6398 73.4684 43.2463 72.7796C44.3873 71.4844 44.007 69.4902 42.465 68.6884C41.7146 68.2874 40.7792 68.2874 40.0082 68.6678ZM41.7866 70.5078C42.1258 70.8471 42.1155 71.2274 41.7455 71.5975C41.3651 71.9778 41.0773 71.9778 40.6867 71.5872C40.4297 71.3199 40.3886 71.2171 40.44 70.9396C40.5736 70.2714 41.3137 70.0247 41.7866 70.5078Z" fill="white"/>
</g>
<defs>
<clipPath id="clip0_119_1617">
<rect width="52.6316" height="52.6316" fill="white" transform="translate(26.3158 23.6842)"/>
</clipPath>
</defs>
</svg>
