<svg width="18" height="18" viewBox="0 0 18 18" fill="none" xmlns="http://www.w3.org/2000/svg">
<path d="M6.6105 11.0452C9.79575 14.2117 12.7845 14.3377 14.0063 14.2237C14.3933 14.1877 14.7293 13.9912 15 13.7212L16.065 12.6622C16.785 11.9475 16.5825 10.7212 15.6615 10.221L14.229 9.44173C13.6245 9.11323 12.8895 9.20999 12.417 9.67949M6.6105 11.0452L6.96308 10.6907M6.6105 11.0452C3.6075 8.05873 3.069 5.49898 3.0015 4.30873M6.6105 11.0452L6.96301 10.6906C6.96303 10.6907 6.96306 10.6907 6.96308 10.6907M6.96308 10.6907C10.0248 13.7343 12.8578 13.8287 13.9598 13.7259L13.9599 13.7259C14.201 13.7035 14.4343 13.5793 14.6469 13.3672L14.6474 13.3667L15.7124 12.3077L15.7127 12.3074C16.178 11.8455 16.071 11.0124 15.4229 10.6604L15.4226 10.6602L13.9903 9.88106L14.2289 9.44197L13.9901 9.88095C13.5712 9.65346 13.0785 9.72716 12.7696 10.034L12.7698 10.0338L12.417 9.67949M6.96308 10.6907C4.04901 7.79265 3.56137 5.34975 3.50071 4.28055M12.417 9.67949L12.7694 10.0342M12.417 9.67949L12.0758 10.0192M12.7694 10.0342L3.50071 4.28055M12.7694 10.0342L12.4285 10.3736L12.4282 10.3739L12.0758 10.0192M12.7694 10.0342L3.5007 4.28042M12.0758 10.0192C12.0758 10.0192 11.2635 10.8262 9.04725 8.62274C6.831 6.41923 7.64325 5.61223 7.64325 5.61223L7.85775 5.39773C8.388 4.87123 8.43825 4.02523 7.9755 3.40723L7.0305 2.14498C6.4575 1.37998 5.35125 1.27873 4.695 1.93123L3.5175 3.10123C3.19275 3.42523 2.97525 3.84373 3.0015 4.30873M12.0758 10.0192C12.4282 10.3739 12.4277 10.3744 12.4272 10.3749L12.4262 10.3759L12.4242 10.3778L12.4198 10.3821L12.4098 10.3913C12.4026 10.3979 12.3943 10.4051 12.3849 10.4129C12.3661 10.4285 12.3427 10.4463 12.3146 10.4651C12.2583 10.5028 12.1833 10.5443 12.0886 10.5795C11.8957 10.6513 11.6386 10.6909 11.3167 10.6415C10.6855 10.5446 9.83585 10.1119 8.69472 8.97731C7.55395 7.8431 7.11769 6.9976 7.02006 6.36776C6.97023 6.04629 7.01037 5.78924 7.08313 5.59631C7.11884 5.50164 7.16075 5.42678 7.19885 5.3706C7.21785 5.34258 7.23584 5.31929 7.25156 5.30055C7.25942 5.29117 7.26673 5.28292 7.27332 5.27577L7.28267 5.26585L7.28691 5.26149L7.28892 5.25946L7.2897 5.25868L7.28989 5.25849L7.5042 5.04418L7.50545 5.04293C7.85008 4.70074 7.89601 4.13527 7.57527 3.70692L7.57524 3.70689L6.63031 2.44473C6.63029 2.4447 6.63027 2.44467 6.63024 2.44464C6.22796 1.90767 5.47504 1.86074 5.04754 2.2858L5.04742 2.28592L3.87065 3.4552C3.87053 3.45531 3.87042 3.45542 3.87031 3.45553C3.61445 3.71094 3.4848 3.99796 3.5007 4.28042M3.0015 4.30873L3.5007 4.28042M3.0015 4.30873L3.50071 4.28055M3.50071 4.28055L3.5007 4.28042" stroke="#999999"/>
</svg>
