<svg width="50" height="50" viewBox="0 0 50 50" fill="none" xmlns="http://www.w3.org/2000/svg">
<path d="M45.3125 40.625H4.6875C4.2731 40.625 3.87567 40.4604 3.58265 40.1674C3.28962 39.8743 3.125 39.4769 3.125 39.0625V12.5C3.125 12.0856 3.28962 11.6882 3.58265 11.3951C3.87567 11.1021 4.2731 10.9375 4.6875 10.9375H14.7812L17.4531 6.95312C17.5947 6.73819 17.7871 6.56154 18.0134 6.43887C18.2396 6.31621 18.4926 6.25133 18.75 6.25H31.25C31.5074 6.25133 31.7604 6.31621 31.9866 6.43887C32.2129 6.56154 32.4053 6.73819 32.5469 6.95312L35.2188 10.9375H45.3125C45.7269 10.9375 46.1243 11.1021 46.4174 11.3951C46.7104 11.6882 46.875 12.0856 46.875 12.5V39.0625C46.875 39.4769 46.7104 39.8743 46.4174 40.1674C46.1243 40.4604 45.7269 40.625 45.3125 40.625ZM6.25 37.5H43.75V14.0625H34.375C34.1176 14.0612 33.8646 13.9963 33.6384 13.8736C33.4121 13.751 33.2197 13.5743 33.0781 13.3594L30.4062 9.375H19.5938L16.9219 13.3594C16.7803 13.5743 16.5879 13.751 16.3616 13.8736C16.1354 13.9963 15.8824 14.0612 15.625 14.0625H6.25V37.5Z" fill="#B0B3DD"/>
<path d="M25 34.375C23.1458 34.375 21.3332 33.8252 19.7915 32.795C18.2498 31.7649 17.0482 30.3007 16.3386 28.5877C15.6291 26.8746 15.4434 24.9896 15.8051 23.171C16.1669 21.3525 17.0598 19.682 18.3709 18.3709C19.682 17.0598 21.3525 16.1669 23.171 15.8051C24.9896 15.4434 26.8746 15.6291 28.5877 16.3386C30.3007 17.0482 31.7649 18.2498 32.795 19.7915C33.8252 21.3332 34.375 23.1458 34.375 25C34.375 27.4864 33.3873 29.871 31.6291 31.6291C29.871 33.3873 27.4864 34.375 25 34.375ZM25 18.75C23.7639 18.75 22.5555 19.1166 21.5277 19.8033C20.4999 20.4901 19.6988 21.4662 19.2258 22.6082C18.7527 23.7503 18.6289 25.0069 18.8701 26.2193C19.1113 27.4317 19.7065 28.5453 20.5806 29.4194C21.4547 30.2935 22.5683 30.8888 23.7807 31.1299C24.9931 31.3711 26.2497 31.2473 27.3918 30.7742C28.5338 30.3012 29.5099 29.5001 30.1967 28.4723C30.8834 27.4445 31.25 26.2361 31.25 25C31.25 23.3424 30.5915 21.7527 29.4194 20.5806C28.2473 19.4085 26.6576 18.75 25 18.75Z" fill="#B0B3DD"/>
</svg>
