<svg width="24" height="24" viewBox="0 0 24 24" fill="none" xmlns="http://www.w3.org/2000/svg">
<g clip-path="url(#clip0_193_4771)">
<path d="M23.4818 0.843148L23.4818 0.843258L14.4818 23.3433L14.4818 23.3433C14.4647 23.3861 14.4361 23.4232 14.3993 23.4508C14.3625 23.4783 14.3187 23.4952 14.2729 23.4995C14.2271 23.5037 14.181 23.4953 14.1397 23.4751C14.0985 23.4549 14.0636 23.4238 14.0389 23.3851C14.0388 23.385 14.0388 23.3849 14.0388 23.3848L13.6493 22.7707L13.6197 22.724L13.6164 22.7207L8.87888 15.2746L8.81921 15.1808L8.72542 15.1211L1.3498 10.4285L1.34812 10.4251L1.2308 10.3507L0.615797 9.9607L0.615275 9.96037C0.576327 9.93574 0.544944 9.90082 0.524595 9.85947C0.504245 9.81812 0.495721 9.77195 0.499963 9.72606C0.504205 9.68017 0.521049 9.63635 0.548635 9.59943C0.57622 9.56252 0.613472 9.53394 0.656275 9.51687L1.24492 9.28245H1.24682L1.33623 9.24669L23.1567 0.518189L23.1568 0.518148C23.2023 0.499962 23.252 0.49551 23.3 0.505344C23.3479 0.515177 23.3919 0.538863 23.4265 0.573467L23.7801 0.219914L23.4265 0.57347C23.4611 0.608072 23.4848 0.652069 23.4946 0.700006C23.5045 0.747945 23.5 0.797716 23.4818 0.843148ZM9.53364 15.3733L9.86825 15.8993L10.3091 15.4585L21.4036 4.36395H21.5369L21.6624 4.04924L22.3674 2.28224L22.7992 1.20017L21.7174 1.63269L19.9504 2.33919L19.8551 2.3773L19.7825 2.4499L8.54147 13.6909L8.10064 14.1317L8.62667 14.4663L9.13367 14.7888L9.13396 14.789C9.16497 14.8087 9.19126 14.835 9.21096 14.866L9.21114 14.8663L9.53364 15.3733Z" fill="#000B90" stroke="#000B90"/>
</g>
<defs>
<clipPath id="clip0_193_4771">
<rect width="24" height="24" fill="white"/>
</clipPath>
</defs>
</svg>
