<svg width="14" height="14" viewBox="0 0 14 14" fill="none" xmlns="http://www.w3.org/2000/svg">
<path fill-rule="evenodd" clip-rule="evenodd" d="M7 1C7.30086 1 7.59743 1.02229 7.88629 1.06514L8.32172 2.38429C8.70315 2.49314 9.06572 2.64829 9.40172 2.84371L10.6531 2.24029C11.0963 2.58057 11.4906 2.98171 11.8231 3.43086L11.1974 4.67114C11.3869 5.01057 11.536 5.37571 11.638 5.75971L12.9494 6.21657C13.0217 6.77115 13.0168 7.33306 12.9349 7.88629L11.6157 8.32171C11.5076 8.69925 11.3533 9.06199 11.1563 9.40171L11.7597 10.6531C11.419 11.0964 11.0183 11.4902 10.5691 11.8231L9.32886 11.1974C8.98576 11.389 8.62007 11.537 8.24029 11.638L7.78343 12.9494C7.22886 13.0217 6.66695 13.0168 6.11372 12.9349L5.67829 11.6157C5.30075 11.5076 4.93801 11.3533 4.59829 11.1563L3.34686 11.7597C2.90359 11.419 2.50983 11.0183 2.17686 10.5691L2.80257 9.32886C2.61144 8.98553 2.46346 8.6199 2.362 8.24028L1.05057 7.78257C0.978397 7.22828 0.9833 6.66666 1.06515 6.11371L2.38429 5.67829C2.49315 5.29686 2.64829 4.93429 2.84372 4.59829L2.24029 3.34686C2.58103 2.90359 2.98172 2.50983 3.43086 2.17686L4.67115 2.80257C5.01425 2.61097 5.37994 2.46297 5.75972 2.362L6.21743 1.05057C6.47692 1.01681 6.73833 0.99992 7 1Z" stroke="#999999" stroke-linecap="round" stroke-linejoin="round"/>
<path d="M7 9.57132C8.42016 9.57132 9.57143 8.42006 9.57143 6.9999C9.57143 5.57973 8.42016 4.42847 7 4.42847C5.57984 4.42847 4.42857 5.57973 4.42857 6.9999C4.42857 8.42006 5.57984 9.57132 7 9.57132Z" stroke="#999999" stroke-linecap="round" stroke-linejoin="round"/>
</svg>
