<svg width="15" height="12" viewBox="0 0 15 12" fill="none" xmlns="http://www.w3.org/2000/svg">
<g clip-path="url(#clip0_2162_4692)">
<path d="M4.87091 3.66996L1.10091 4.13246L1.03414 4.14396C0.93306 4.16667 0.840911 4.21167 0.767105 4.27436C0.693299 4.33706 0.64048 4.41521 0.614042 4.50082C0.587604 4.58644 0.588494 4.67647 0.616621 4.7617C0.644749 4.84693 0.699106 4.92432 0.774141 4.98596L3.50532 7.23546L2.86123 10.413L2.85355 10.468C2.84736 10.5564 2.86907 10.6447 2.91645 10.7237C2.96383 10.8027 3.03519 10.8697 3.1232 10.9177C3.21122 10.9657 3.31274 10.9931 3.41737 10.997C3.52199 11.0009 3.62597 10.9812 3.71864 10.94L7.09037 9.43996L10.4544 10.94L10.5135 10.963C10.611 10.9955 10.717 11.0054 10.8206 10.9918C10.9242 10.9782 11.0217 10.9416 11.103 10.8856C11.1843 10.8296 11.2466 10.7563 11.2834 10.6733C11.3202 10.5902 11.3302 10.5004 11.3124 10.413L10.6677 7.23546L13.4001 4.98546L13.4462 4.94296C13.512 4.87435 13.5552 4.79219 13.5713 4.70486C13.5874 4.61753 13.5758 4.52815 13.5378 4.44583C13.4998 4.3635 13.4367 4.29118 13.3549 4.23622C13.2731 4.18126 13.1755 4.14563 13.0721 4.13296L9.30214 3.66996L7.61687 0.779961C7.5681 0.696229 7.49261 0.625719 7.39894 0.576414C7.30526 0.527108 7.19714 0.500977 7.08682 0.500977C6.9765 0.500977 6.86839 0.527108 6.77471 0.576414C6.68104 0.625719 6.60554 0.696229 6.55678 0.779961L4.87091 3.66996Z" fill="#FBA91D"/>
</g>
<defs>
<clipPath id="clip0_2162_4692">
<rect width="14.1818" height="12" fill="white"/>
</clipPath>
</defs>
</svg>
