<svg width="18" height="18" viewBox="0 0 18 18" fill="none" xmlns="http://www.w3.org/2000/svg">
<g clip-path="url(#clip0_424_3935)">
<path d="M3.85715 9.00004V5.61862C3.86719 4.95394 4.00829 4.29778 4.27235 3.68773C4.53642 3.07768 4.91827 2.52574 5.39602 2.06351C5.87376 1.60129 6.43802 1.23788 7.05646 0.994109C7.6749 0.750334 8.33536 0.630986 9 0.642902C9.66465 0.630986 10.3251 0.750334 10.9435 0.994109C11.562 1.23788 12.1262 1.60129 12.604 2.06351C13.0817 2.52574 13.4636 3.07768 13.7277 3.68773C13.9917 4.29778 14.1328 4.95394 14.1429 5.61862V9.00004M11.5714 15.75C12.2534 15.75 12.9075 15.4791 13.3897 14.9969C13.8719 14.5147 14.1429 13.8606 14.1429 13.1786V10.2858M11.5714 15.75C11.5714 16.1763 11.4021 16.5851 11.1007 16.8865C10.7993 17.1879 10.3905 17.3572 9.96429 17.3572H8.03572C7.60948 17.3572 7.20069 17.1879 6.8993 16.8865C6.5979 16.5851 6.42858 16.1763 6.42858 15.75C6.42858 15.3238 6.5979 14.915 6.8993 14.6136C7.20069 14.3122 7.60948 14.1429 8.03572 14.1429H9.96429C10.3905 14.1429 10.7993 14.3122 11.1007 14.6136C11.4021 14.915 11.5714 15.3238 11.5714 15.75ZM1.92857 7.07147H3.21429C3.38479 7.07147 3.5483 7.1392 3.66886 7.25976C3.78942 7.38032 3.85715 7.54383 3.85715 7.71433V11.5715C3.85715 11.742 3.78942 11.9055 3.66886 12.026C3.5483 12.1466 3.38479 12.2143 3.21429 12.2143H1.92857C1.58758 12.2143 1.26056 12.0789 1.01944 11.8378C0.778319 11.5966 0.64286 11.2696 0.64286 10.9286V8.35719C0.64286 8.01619 0.778319 7.68917 1.01944 7.44805C1.26056 7.20693 1.58758 7.07147 1.92857 7.07147ZM16.0714 12.2143H14.7857C14.6152 12.2143 14.4517 12.1466 14.3311 12.026C14.2106 11.9055 14.1429 11.742 14.1429 11.5715V7.71433C14.1429 7.54383 14.2106 7.38032 14.3311 7.25976C14.4517 7.1392 14.6152 7.07147 14.7857 7.07147H16.0714C16.4124 7.07147 16.7395 7.20693 16.9806 7.44805C17.2217 7.68917 17.3571 8.01619 17.3571 8.35719V10.9286C17.3571 11.2696 17.2217 11.5966 16.9806 11.8378C16.7395 12.0789 16.4124 12.2143 16.0714 12.2143Z" stroke="#999999" stroke-linecap="round" stroke-linejoin="round"/>
</g>
<defs>
<clipPath id="clip0_424_3935">
<rect width="18" height="18" fill="white"/>
</clipPath>
</defs>
</svg>
