<svg width="40" height="40" viewBox="0 0 40 40" fill="none" xmlns="http://www.w3.org/2000/svg">
<g clip-path="url(#clip0_424_12613)">
<path d="M13.7384 12.2332L3.1051 13.7749L2.91676 13.8132C2.63166 13.8889 2.37176 14.0389 2.16359 14.2479C1.95541 14.4569 1.80644 14.7174 1.73187 15.0027C1.6573 15.2881 1.65981 15.5882 1.73914 15.8723C1.81848 16.1564 1.97179 16.4144 2.18343 16.6199L9.88677 24.1182L8.0701 34.7099L8.04843 34.8932C8.03098 35.1881 8.09221 35.4823 8.22585 35.7457C8.35949 36.0091 8.56074 36.2323 8.80899 36.3924C9.05724 36.5525 9.34358 36.6437 9.63868 36.6567C9.93378 36.6697 10.227 36.6041 10.4884 36.4665L19.9984 31.4665L29.4868 36.4665L29.6534 36.5432C29.9285 36.6516 30.2275 36.6848 30.5197 36.6395C30.8119 36.5941 31.0867 36.4719 31.3161 36.2853C31.5454 36.0987 31.721 35.8545 31.8248 35.5776C31.9286 35.3007 31.9569 35.0013 31.9068 34.7099L30.0884 24.1182L37.7951 16.6182L37.9251 16.4765C38.1108 16.2478 38.2326 15.974 38.278 15.6829C38.3234 15.3918 38.2908 15.0938 38.1836 14.8194C38.0764 14.545 37.8983 14.3039 37.6676 14.1207C37.4368 13.9375 37.1617 13.8188 36.8701 13.7765L26.2368 12.2332L21.4834 2.59987C21.3459 2.32076 21.133 2.08573 20.8687 1.92138C20.6045 1.75703 20.2996 1.66992 19.9884 1.66992C19.6773 1.66992 19.3723 1.75703 19.1081 1.92138C18.8439 2.08573 18.631 2.32076 18.4934 2.59987L13.7384 12.2332Z" fill="#FBA91D"/>
</g>
<defs>
<clipPath id="clip0_424_12613">
<rect width="40" height="40" fill="white"/>
</clipPath>
</defs>
</svg>
