<svg width="50" height="34" viewBox="0 0 50 34" fill="none" xmlns="http://www.w3.org/2000/svg">
<path d="M3.04443 10.712C3.04443 10.7602 3.47379 10.9341 4.00072 11.0983C6.89884 11.9966 9.17246 13.687 10.5581 15.9858C10.7825 16.3625 10.9387 16.575 10.9191 16.4688C10.8899 16.3625 10.6362 15.1841 10.3629 13.8608C10.0604 12.3926 9.79697 11.3495 9.68963 11.2046C9.32859 10.7023 9.18222 10.6733 6.00111 10.6443C4.14709 10.625 3.04443 10.654 3.04443 10.712Z" fill="#EC9615"/>
<path d="M0.029274 29.9239L0.068306 31.7301L0.39032 32.3773C0.751366 33.1114 1.21975 33.5364 1.97112 33.8165C2.44926 33.9903 3.12256 34 25 34C46.8774 34 47.5507 33.9903 48.0289 33.8165C48.7802 33.5364 49.2486 33.1114 49.6097 32.3773L49.9317 31.7301L49.9707 29.9239L50 28.108H25H0L0.029274 29.9239Z" fill="#EC9615"/>
<path d="M1.92233 0.193226C1.2783 0.444363 0.644028 1.05289 0.331772 1.72902C0.09758 2.23129 0.078064 2.38584 0.039032 4.07618L0 5.89209H1.02459H2.04918L2.08821 4.02789C2.11749 2.38584 2.14676 2.12504 2.33216 1.72902C2.61514 1.10118 3.16159 0.540954 3.75683 0.251181L4.25449 4.43459e-05L3.32748 0.00970364C2.66393 0.00970364 2.27361 0.0579987 1.92233 0.193226Z" fill="#1596C1"/>
<path d="M3.75672 0.241522C3.16148 0.540954 2.61504 1.10118 2.33205 1.72902C2.14665 2.12504 2.11738 2.38584 2.0881 4.02789L2.04907 5.89209H26.0245H49.9999L49.9706 4.02789C49.9316 2.23129 49.9218 2.15402 49.6584 1.62277C49.3656 1.03357 48.9363 0.608567 48.2922 0.270499L47.8824 0.0483398L26.0733 0.0193624L4.25438 4.43459e-05L3.75672 0.241522Z" fill="#1596C1"/>
<path d="M29.5376 10.6155C27.3518 10.9632 25.771 12.045 25.2343 13.5615C25.1465 13.774 25.0879 14.2666 25.0782 14.6433C25.0782 16.0342 25.7612 16.8456 27.9275 17.966C29.8108 18.9416 30.1621 19.3859 29.6937 20.149C29.3912 20.6416 28.9033 20.8058 27.6933 20.8444C26.5321 20.8831 25.771 20.7478 24.6976 20.3228C24.3658 20.1876 24.0926 20.091 24.0731 20.1103C24.0243 20.178 23.6242 22.8149 23.6535 22.8535C23.7608 22.9501 25.3026 23.2882 26.1125 23.3848C27.1469 23.5103 28.7765 23.4427 29.684 23.2302C30.6598 22.9984 31.6941 22.4575 32.2893 21.8683C33.4505 20.7285 33.7726 18.9416 33.0505 17.7149C32.6699 17.0677 31.9088 16.4882 30.4451 15.7444C29.0107 15.0007 28.6106 14.6626 28.6106 14.1797C28.6106 13.7933 29.0399 13.378 29.5961 13.2331C30.3085 13.0399 32.0454 13.1558 32.826 13.4456L33.4896 13.687L33.5384 13.3876C33.5676 13.2234 33.675 12.6342 33.7726 12.074C33.8799 11.5137 33.9482 11.0501 33.9384 11.0405C33.9189 11.0211 33.5676 10.9245 33.1383 10.8086C32.2796 10.5865 30.3573 10.4899 29.5376 10.6155Z" fill="#1596C1"/>
<path d="M14.9396 10.9825C14.12 13.1172 11.6902 19.1927 11.6414 19.2507C11.5926 19.299 11.4853 19.0382 11.3975 18.6905C11.0852 17.4637 10.2558 16.2081 8.8116 14.7689C7.87483 13.8416 6.63557 12.8564 6.58678 13.0109C6.57702 13.0495 7.24056 15.3677 8.06023 18.1592L9.56297 23.2302H11.3975H13.232L15.7007 17.5314C17.0571 14.3922 18.2769 11.5814 18.4135 11.2723L18.6477 10.7217H16.8424H15.047L14.9396 10.9825Z" fill="#1596C1"/>
<path d="M20.0821 10.9823C20.0528 11.1368 19.5844 13.8414 19.0477 16.9999C18.511 20.1584 18.0427 22.863 18.0134 23.0079L17.9548 23.2783H19.6722C20.6188 23.2783 21.3897 23.2493 21.3897 23.201C21.3897 23.1141 23.4193 11.3687 23.4974 10.9823L23.5559 10.7215H21.8483H20.1406L20.0821 10.9823Z" fill="#1596C1"/>
<path d="M39.6174 10.8084C39.1978 10.8954 38.8172 11.1272 38.6221 11.4266C38.505 11.6005 34.7481 19.9653 33.626 22.5249L33.304 23.2783H35.0897H36.8754L37.2169 22.38L37.5584 21.4914H39.8321H42.1154L42.3008 22.38L42.496 23.2783H44.0865C45.3161 23.2783 45.6673 23.2493 45.6381 23.1528C45.6186 23.0948 45.0038 20.3613 44.2719 17.0965C43.5499 13.8317 42.9351 11.0596 42.9058 10.934C42.857 10.7215 42.8278 10.7215 41.4129 10.7312C40.6225 10.7408 39.8223 10.7795 39.6174 10.8084ZM40.9933 16.4493C41.2762 17.7243 41.4812 18.7772 41.4616 18.7965C41.4421 18.8255 40.7883 18.8255 40.0077 18.8158L38.5928 18.7868L39.0514 17.6278C39.3051 16.9903 39.715 15.9374 39.9784 15.2806C40.2321 14.6238 40.4468 14.1022 40.4663 14.1215C40.4761 14.1408 40.72 15.184 40.9933 16.4493Z" fill="#1596C1"/>
<path d="M1.12219 5.95961L0.0195312 5.99825V16.9903V27.9823L1.64912 28.0403C2.5371 28.0789 13.7783 28.1079 26.6296 28.1079H49.9805V17V5.892L26.1027 5.91132C12.9586 5.92098 1.71742 5.94995 1.12219 5.95961ZM31.9282 10.5284C32.9625 10.6539 33.8798 10.9051 33.9481 11.0789C33.9871 11.1852 33.6066 13.6096 33.5383 13.6965C33.5187 13.7159 33.1382 13.6096 32.6893 13.4744C31.2159 13.0011 29.4009 13.1267 28.8544 13.7159C28.591 14.0056 28.63 14.4403 28.952 14.7784C29.1081 14.9426 29.8302 15.3676 30.5523 15.7443C32.7088 16.8358 33.3821 17.5988 33.47 19.0284C33.5871 21.0954 32.1526 22.6795 29.6058 23.2977C28.6202 23.5295 26.6686 23.5778 25.5367 23.3846C24.9317 23.288 23.5363 22.921 23.5363 22.863C23.5461 22.7181 24.0242 20.0619 24.0535 20.0329C24.0632 20.0136 24.3462 20.1102 24.678 20.2358C25.6733 20.6414 26.454 20.796 27.4883 20.8056C28.991 20.825 29.7814 20.4193 29.7814 19.6465C29.7814 19.1636 29.4009 18.8159 28.2885 18.246C26.9614 17.5795 26.3564 17.1835 25.8685 16.6909C25.1952 16.0051 25.0488 15.638 25.0488 14.6335C25.0488 13.8414 25.0781 13.6965 25.3708 13.117C25.888 12.0738 26.8248 11.3397 28.2494 10.8664C29.4204 10.4801 30.6109 10.3738 31.9282 10.5284ZM9.27012 10.7505C9.70923 10.992 9.9239 11.3687 10.1093 12.296C10.1971 12.7306 10.4606 13.9863 10.6948 15.0875C10.929 16.1983 11.1046 17.0965 11.0851 17.0965C11.0656 17.0965 10.9095 16.8261 10.7436 16.488C9.436 13.9187 6.79158 11.9 3.62999 11.05C2.86887 10.8471 2.92742 10.8858 3.00548 10.6829C3.06403 10.5284 3.30798 10.5187 6.01094 10.5477C8.61633 10.5767 8.98713 10.596 9.27012 10.7505ZM18.628 10.8858C18.5793 11.0983 13.5246 22.7278 13.3294 23.1045L13.1831 23.375H11.3778H9.58237L9.48479 23.1431C9.26036 22.5346 6.45981 12.9142 6.49884 12.8755C6.52812 12.8465 6.82086 13.0204 7.16239 13.2619C9.15302 14.6818 10.9778 16.9227 11.4266 18.5068L11.612 19.1733L11.7974 18.7386C11.9048 18.4971 12.6659 16.5943 13.4856 14.5079L14.9785 10.7215H16.8326C18.5402 10.7215 18.6768 10.7312 18.628 10.8858ZM23.0777 13.7835C22.7849 15.4738 22.297 18.3136 21.9848 20.0909L21.4286 23.3267L19.6429 23.3556C17.9743 23.375 17.8572 23.3653 17.8962 23.2108C17.9255 23.1142 18.4231 20.2647 18.9988 16.8744L20.0625 10.7215H21.8287H23.6046L23.0777 13.7835ZM44.3013 16.9227C45.0722 20.342 45.687 23.1914 45.687 23.2494C45.687 23.346 45.2967 23.375 44.0769 23.375H42.4766L42.379 23.0079C42.3302 22.8147 42.2326 22.3801 42.1643 22.042L42.0375 21.4431H39.8322H37.6366L37.2658 22.409L36.895 23.375H35.0312C33.5871 23.375 33.187 23.346 33.226 23.2494C33.6846 22.1483 38.4856 11.5329 38.6027 11.3494C38.9442 10.8375 39.4126 10.7215 41.2568 10.7215H42.9255L44.3013 16.9227Z" fill="#ECECEC"/>
<path d="M40.3591 14.4404C40.3201 14.5466 39.92 15.5705 39.4809 16.7006C39.032 17.8404 38.6807 18.7869 38.7002 18.8063C38.7198 18.8256 39.3443 18.8256 40.0859 18.8159L41.4422 18.7869L40.9446 16.5171C40.5933 14.9523 40.4176 14.3051 40.3591 14.4404Z" fill="#ECECEC"/>
</svg>
